<svg version="1.2" xmlns="http://www.w3.org/2000/svg" viewBox="0 0 1040 616" width="1040" height="616"><defs><linearGradient id="P" gradientUnits="userSpaceOnUse"/><linearGradient id="g1" x1="-253.1" y1="430.9" x2="733" y2="-285.2" href="#P"><stop stop-color="#a737d5"/><stop offset="1" stop-color="#ef497a"/></linearGradient><linearGradient id="g2" x1="237.1" y1="91.6" x2="1039.1" y2="21.8" href="#P"><stop stop-color="#a737d5"/><stop offset="1" stop-color="#ef497a"/></linearGradient><linearGradient id="g3" x1="-1165.5" y1="1538.3" x2="-942.4" y2="1318.3" href="#P"><stop stop-color="#fdf53f"/><stop offset="1" stop-color="#d93c65"/></linearGradient><linearGradient id="g4" x1="840.8" y1="478.2" x2="942.3" y2="149.7" href="#P"><stop stop-color="#2b3582"/><stop offset="1" stop-color="#150e42"/></linearGradient><linearGradient id="g5" x1="209.5" y1="348.3" x2="152.8" y2="165" href="#P"><stop stop-color="#2b3582"/><stop offset="1" stop-color="#150e42"/></linearGradient><linearGradient id="g6" x1="680.4" y1="467.5" x2="784" y2="417.4" href="#P"><stop stop-color="#fdf53f"/><stop offset="1" stop-color="#d93c65"/></linearGradient><linearGradient id="g7" x1="262.9" y1="857.3" x2="256.1" y2="229.1" href="#P"><stop stop-color="#cb236d"/><stop offset="1" stop-color="#4c246d"/></linearGradient><linearGradient id="g8" x1="379.5" y1="271.4" x2="376.9" y2="207.4" href="#P"><stop stop-color="#cb236d"/><stop offset="1" stop-color="#4c246d"/></linearGradient><linearGradient id="g9" x1="427.4" y1="163.1" x2="442.5" y2="372.6" href="#P"><stop stop-color="#cb236d"/><stop offset="1" stop-color="#4c246d"/></linearGradient><linearGradient id="g10" x1="583.9" y1="264" x2="581.3" y2="200.1" href="#P"><stop stop-color="#cb236d"/><stop offset="1" stop-color="#4c246d"/></linearGradient><linearGradient id="g11" x1="631.4" y1="148.5" x2="646.5" y2="358" href="#P"><stop stop-color="#cb236d"/><stop offset="1" stop-color="#4c246d"/></linearGradient><linearGradient id="g12" x1="656.9" y1="65.4" x2="636.8" y2="213.3" href="#P"><stop stop-color="#cb236d"/><stop offset="1" stop-color="#4c246d"/></linearGradient><linearGradient id="g13" x1="812.1" y1="196.6" x2="738.3" y2="885.6" href="#P"><stop stop-color="#cb236d"/><stop offset="1" stop-color="#4c246d"/></linearGradient><linearGradient id="g14" x1="603" y1="257.3" x2="573.5" y2="491" href="#P"><stop stop-color="#a737d5"/><stop offset="1" stop-color="#ef497a"/></linearGradient><linearGradient id="g15" x1="482.5" y1="394.4" x2="566.8" y2="394.4" href="#P"><stop stop-color="#fff"/><stop offset="1" stop-color="#fff"/></linearGradient><linearGradient id="g16" x1="631.5" y1="130.8" x2="806.1" y2="-110.6" href="#P"><stop stop-color="#fdf53f"/><stop offset="1" stop-color="#d93c65"/></linearGradient><linearGradient id="g17" x1="710.2" y1="83.9" x2="1006.2" y2="-210" href="#P"><stop stop-color="#fdf53f"/><stop offset="1" stop-color="#d93c65"/></linearGradient><linearGradient id="g18" x1="221" y1="138" x2="280.1" y2="69.4" href="#P"><stop stop-color="#fdf53f"/><stop offset="1" stop-color="#d93c65"/></linearGradient><linearGradient id="g19" x1="394.6" y1="80.7" x2="219.6" y2="345" href="#P"><stop stop-color="#fdf53f"/><stop offset="1" stop-color="#d93c65"/></linearGradient><linearGradient id="g20" x1="366.9" y1="72.7" x2="274.4" y2="228.1" href="#P"><stop stop-color="#fdf53f"/><stop offset="1" stop-color="#d93c65"/></linearGradient><linearGradient id="g21" x1="303" y1="203.3" x2="346.3" y2="153" href="#P"><stop stop-color="#fdf53f"/><stop offset="1" stop-color="#d93c65"/></linearGradient><linearGradient id="g22" x1="431.1" y1="162" x2="302.9" y2="355.6" href="#P"><stop stop-color="#fdf53f"/><stop offset="1" stop-color="#d93c65"/></linearGradient><linearGradient id="g23" x1="410.8" y1="156.1" x2="343" y2="269.9" href="#P"><stop stop-color="#fdf53f"/><stop offset="1" stop-color="#d93c65"/></linearGradient><linearGradient id="g24" x1="148.4" y1="110.2" x2="191.7" y2="59.9" href="#P"><stop stop-color="#fdf53f"/><stop offset="1" stop-color="#d93c65"/></linearGradient><linearGradient id="g25" x1="276.5" y1="68.8" x2="148.3" y2="262.5" href="#P"><stop stop-color="#fdf53f"/><stop offset="1" stop-color="#d93c65"/></linearGradient><linearGradient id="g26" x1="256.2" y1="63" x2="188.4" y2="176.8" href="#P"><stop stop-color="#fdf53f"/><stop offset="1" stop-color="#d93c65"/></linearGradient><linearGradient id="g27" x1="342.5" y1="77.4" x2="375.3" y2="39.4" href="#P"><stop stop-color="#fdf53f"/><stop offset="1" stop-color="#d93c65"/></linearGradient><linearGradient id="g28" x1="440" y1="46.7" x2="343.2" y2="193" href="#P"><stop stop-color="#fdf53f"/><stop offset="1" stop-color="#d93c65"/></linearGradient><linearGradient id="g29" x1="424.7" y1="42.3" x2="373.5" y2="128.2" href="#P"><stop stop-color="#fdf53f"/><stop offset="1" stop-color="#d93c65"/></linearGradient><linearGradient id="g30" x1="188.7" y1="222.9" x2="244.7" y2="157.9" href="#P"><stop stop-color="#fdf53f"/><stop offset="1" stop-color="#d93c65"/></linearGradient><linearGradient id="g31" x1="353.3" y1="168.7" x2="187.6" y2="418.9" href="#P"><stop stop-color="#fdf53f"/><stop offset="1" stop-color="#d93c65"/></linearGradient><linearGradient id="g32" x1="327.1" y1="161.2" x2="239.5" y2="308.3" href="#P"><stop stop-color="#fdf53f"/><stop offset="1" stop-color="#d93c65"/></linearGradient><linearGradient id="g33" x1="562.6" y1="272.3" x2="629.2" y2="310.3" href="#P"><stop stop-color="#f9b776"/><stop offset="1" stop-color="#f47960"/></linearGradient><linearGradient id="g34" x1="614.9" y1="255.6" x2="644.7" y2="327.8" href="#P"><stop stop-color="#cb236d"/><stop offset="1" stop-color="#4c246d"/></linearGradient><linearGradient id="g35" x1="625.9" y1="186.7" x2="398" y2="44" href="#P"><stop stop-color="#f9b776"/><stop offset="1" stop-color="#f47960"/></linearGradient><linearGradient id="g36" x1="624.9" y1="271.4" x2="668.6" y2="336" href="#P"><stop stop-color="#cb236d"/><stop offset="1" stop-color="#4c246d"/></linearGradient><linearGradient id="g37" x1="727.9" y1="221.7" x2="667.2" y2="79.7" href="#P"><stop stop-color="#2b3582"/><stop offset="1" stop-color="#150e42"/></linearGradient><linearGradient id="g38" x1="697" y1="85.3" x2="713.5" y2="119.5" href="#P"><stop stop-color="#2b3582"/><stop offset="1" stop-color="#150e42"/></linearGradient><linearGradient id="g39" x1="649.6" y1="169.1" x2="806.3" y2="320.3" href="#P"><stop stop-color="#53d8ff"/><stop offset="1" stop-color="#3840f7"/></linearGradient><linearGradient id="g40" x1="706.5" y1="192.8" x2="772.4" y2="192.8" href="#P"><stop stop-color="#f9b776"/><stop offset="1" stop-color="#f47960"/></linearGradient><linearGradient id="g41" x1="670.9" y1="168.7" x2="672.4" y2="145.6" href="#P"><stop stop-color="#f9b776"/><stop offset="1" stop-color="#f47960"/></linearGradient><linearGradient id="g42" x1="666.3" y1="144.9" x2="662" y2="93.6" href="#P"><stop stop-color="#f9b776"/><stop offset="1" stop-color="#f47960"/></linearGradient><linearGradient id="g43" x1="664.7" y1="97" x2="695.3" y2="117.7" href="#P"><stop stop-color="#2b3582"/><stop offset="1" stop-color="#150e42"/></linearGradient><linearGradient id="g44" x1="681.6" y1="145.2" x2="676.6" y2="85.9" href="#P"><stop stop-color="#f9b776"/><stop offset="1" stop-color="#f47960"/></linearGradient><linearGradient id="g45" x1="707" y1="211.9" x2="672.9" y2="223.1" href="#P"><stop stop-color="#2b3582"/><stop offset="1" stop-color="#150e42"/></linearGradient><linearGradient id="g46" x1="683.7" y1="204.7" x2="659.1" y2="230.8" href="#P"><stop stop-color="#2b3582"/><stop offset="1" stop-color="#150e42"/></linearGradient><linearGradient id="g47" x1="646.2" y1="189.6" x2="636" y2="205" href="#P"><stop stop-color="#53d8ff"/><stop offset="1" stop-color="#3840f7"/></linearGradient><linearGradient id="g48" x1="526.4" y1="47.6" x2="417.2" y2="87.5" href="#P"><stop stop-color="#53d8ff"/><stop offset="1" stop-color="#3840f7"/></linearGradient><linearGradient id="g49" x1="628" y1="25.1" x2="559.2" y2="50.2" href="#P"><stop stop-color="#53d8ff"/><stop offset="1" stop-color="#3840f7"/></linearGradient><linearGradient id="g50" x1="366.6" y1="304" x2="322.2" y2="304" href="#P"><stop stop-color="#53d8ff"/><stop offset="1" stop-color="#3840f7"/></linearGradient><linearGradient id="g51" x1="245.3" y1="304" x2="168.8" y2="304" href="#P"><stop stop-color="#53d8ff"/><stop offset="1" stop-color="#3840f7"/></linearGradient><linearGradient id="g52" x1="291.7" y1="454.6" x2="280.8" y2="454.6" href="#P"><stop stop-color="#53d8ff"/><stop offset="1" stop-color="#3840f7"/></linearGradient><linearGradient id="g53" x1="4" y1="311.1" x2="356.1" y2="795" href="#P"><stop stop-color="#cb236d"/><stop offset="1" stop-color="#4c246d"/></linearGradient><linearGradient id="g54" x1="287" y1="293.1" x2="374.2" y2="300.5" href="#P"><stop stop-color="#53d8ff"/><stop offset="1" stop-color="#3840f7"/></linearGradient><linearGradient id="g55" x1="286.2" y1="302.7" x2="373.3" y2="310.1" href="#P"><stop stop-color="#53d8ff"/><stop offset="1" stop-color="#3840f7"/></linearGradient><linearGradient id="g56" x1="311.2" y1="311.5" x2="372.8" y2="316.8" href="#P"><stop stop-color="#53d8ff"/><stop offset="1" stop-color="#3840f7"/></linearGradient><linearGradient id="g57" x1="220.2" y1="303.4" x2="371.4" y2="316.7" href="#P"><stop stop-color="#53d8ff"/><stop offset="1" stop-color="#3840f7"/></linearGradient><linearGradient id="g58" x1="255.4" y1="383.3" x2="255.4" y2="318.5" href="#P"><stop stop-color="#53d8ff"/><stop offset="1" stop-color="#3840f7"/></linearGradient><linearGradient id="g59" x1="292.1" y1="387.1" x2="292.1" y2="362.1" href="#P"><stop stop-color="#53d8ff"/><stop offset="1" stop-color="#3840f7"/></linearGradient><linearGradient id="g60" x1="321.4" y1="390.8" x2="321.4" y2="345.9" href="#P"><stop stop-color="#53d8ff"/><stop offset="1" stop-color="#3840f7"/></linearGradient><linearGradient id="g61" x1="349.1" y1="393.9" x2="349.1" y2="369" href="#P"><stop stop-color="#53d8ff"/><stop offset="1" stop-color="#3840f7"/></linearGradient><linearGradient id="g62" x1="217.4" y1="295.2" x2="221.4" y2="295.6" href="#P"><stop stop-color="#53d8ff"/><stop offset="1" stop-color="#3840f7"/></linearGradient><linearGradient id="g63" x1="217.6" y1="293.3" x2="221.7" y2="293.6" href="#P"><stop stop-color="#53d8ff"/><stop offset="1" stop-color="#3840f7"/></linearGradient><linearGradient id="g64" x1="204" y1="380.6" x2="370.8" y2="395.3" href="#P"><stop stop-color="#53d8ff"/><stop offset="1" stop-color="#3840f7"/></linearGradient><linearGradient id="g65" x1="204.2" y1="377" x2="371.2" y2="391.7" href="#P"><stop stop-color="#53d8ff"/><stop offset="1" stop-color="#3840f7"/></linearGradient><linearGradient id="g66" x1="212" y1="596" x2="231.6" y2="596" href="#P"><stop stop-color="#2b3582"/><stop offset="1" stop-color="#150e42"/></linearGradient><linearGradient id="g67" x1="259.9" y1="593.5" x2="201.1" y2="639.6" href="#P"><stop stop-color="#53d8ff"/><stop offset="1" stop-color="#3840f7"/></linearGradient><linearGradient id="g68" x1="368.4" y1="258.9" x2="291.2" y2="338.8" href="#P"><stop stop-color="#53d8ff"/><stop offset="1" stop-color="#3840f7"/></linearGradient><linearGradient id="g69" x1="326.1" y1="304.2" x2="287.8" y2="348" href="#P"><stop stop-color="#fdf53f"/><stop offset="1" stop-color="#d93c65"/></linearGradient><linearGradient id="g70" x1="336.1" y1="291.2" x2="316" y2="317.3" href="#P"><stop stop-color="#53d8ff"/><stop offset="1" stop-color="#3840f7"/></linearGradient><linearGradient id="g71" x1="184.7" y1="452.7" x2="211.4" y2="452.7" href="#P"><stop stop-color="#f9b776"/><stop offset="1" stop-color="#f47960"/></linearGradient><linearGradient id="g72" x1="223.4" y1="583.8" x2="219.6" y2="617" href="#P"><stop stop-color="#f9b776"/><stop offset="1" stop-color="#f47960"/></linearGradient><linearGradient id="g73" x1="281.9" y1="608.1" x2="209.2" y2="665.2" href="#P"><stop stop-color="#53d8ff"/><stop offset="1" stop-color="#3840f7"/></linearGradient><linearGradient id="g74" x1="242.1" y1="597.4" x2="270.9" y2="597.4" href="#P"><stop stop-color="#2b3582"/><stop offset="1" stop-color="#150e42"/></linearGradient><linearGradient id="g75" x1="254.5" y1="587.3" x2="250.7" y2="620.4" href="#P"><stop stop-color="#f9b776"/><stop offset="1" stop-color="#f47960"/></linearGradient><linearGradient id="g76" x1="337.1" y1="463.7" x2="216.2" y2="651.4" href="#P"><stop stop-color="#2b3582"/><stop offset="1" stop-color="#150e42"/></linearGradient><linearGradient id="g77" x1="302.8" y1="372.7" x2="190.5" y2="619.3" href="#P"><stop stop-color="#cb236d"/><stop offset="1" stop-color="#4c246d"/></linearGradient><linearGradient id="g78" x1="315.9" y1="339.4" x2="292.5" y2="372.3" href="#P"><stop stop-color="#f9b776"/><stop offset="1" stop-color="#f47960"/></linearGradient><linearGradient id="g79" x1="306.1" y1="328.6" x2="282" y2="362.7" href="#P"><stop stop-color="#f9b776"/><stop offset="1" stop-color="#f47960"/></linearGradient><linearGradient id="g80" x1="236.3" y1="369.8" x2="223" y2="427.3" href="#P"><stop stop-color="#f9b776"/><stop offset="1" stop-color="#f47960"/></linearGradient><linearGradient id="g81" x1="236.3" y1="355.1" x2="242.8" y2="393.2" href="#P"><stop stop-color="#f9b776"/><stop offset="1" stop-color="#f47960"/></linearGradient><linearGradient id="g82" x1="200.1" y1="360.4" x2="220.7" y2="338.6" href="#P"><stop stop-color="#2b3582"/><stop offset="1" stop-color="#150e42"/></linearGradient><linearGradient id="g83" x1="210.9" y1="394.5" x2="209.9" y2="371" href="#P"><stop stop-color="#f9b776"/><stop offset="1" stop-color="#f47960"/></linearGradient><linearGradient id="g84" x1="215.3" y1="392.3" x2="192.3" y2="434.7" href="#P"><stop stop-color="#cb236d"/><stop offset="1" stop-color="#4c246d"/></linearGradient><linearGradient id="g85" x1="233.1" y1="489.6" x2="222.9" y2="507.7" href="#P"><stop stop-color="#2b3582"/><stop offset="1" stop-color="#150e42"/></linearGradient><linearGradient id="g86" x1="721.8" y1="60.1" x2="639" y2="31.7" href="#P"><stop stop-color="#ce1567"/><stop offset="1" stop-color="#7a1dbc"/></linearGradient><linearGradient id="g87" x1="671.7" y1="60.4" x2="572.3" y2="57.8" href="#P"><stop stop-color="#ce1567"/><stop offset="1" stop-color="#7a1dbc"/></linearGradient><linearGradient id="g88" x1="713.8" y1="66.1" x2="635.5" y2="39.3" href="#P"><stop stop-color="#ce1567"/><stop offset="1" stop-color="#7a1dbc"/></linearGradient><linearGradient id="g89" x1="683.5" y1="30.4" x2="645.6" y2="28.3" href="#P"><stop stop-color="#ce1567"/><stop offset="1" stop-color="#7a1dbc"/></linearGradient><linearGradient id="g90" x1="670.8" y1="333.2" x2="893.5" y2="333.2" href="#P"><stop stop-color="#2b3582"/><stop offset="1" stop-color="#150e42"/></linearGradient><linearGradient id="g91" x1="670.1" y1="424.9" x2="691.1" y2="337.9" href="#P"><stop stop-color="#a737d5"/><stop offset="1" stop-color="#ef497a"/></linearGradient><linearGradient id="g92" x1="688" y1="439" x2="725" y2="439" href="#P"><stop stop-color="#53d8ff"/><stop offset="1" stop-color="#3840f7"/></linearGradient><linearGradient id="g93" x1="740" y1="439" x2="777" y2="439" href="#P"><stop stop-color="#53d8ff"/><stop offset="1" stop-color="#3840f7"/></linearGradient><linearGradient id="g94" x1="790" y1="439" x2="827" y2="439" href="#P"><stop stop-color="#53d8ff"/><stop offset="1" stop-color="#3840f7"/></linearGradient><linearGradient id="g95" x1="886.3" y1="454.1" x2="804.1" y2="551.1" href="#P"><stop stop-color="#e40045"/><stop offset="1" stop-color="#5c0e16"/></linearGradient><linearGradient id="g96" x1="688" y1="475" x2="725" y2="475" href="#P"><stop stop-color="#53d8ff"/><stop offset="1" stop-color="#3840f7"/></linearGradient><linearGradient id="g97" x1="740" y1="475" x2="777" y2="475" href="#P"><stop stop-color="#53d8ff"/><stop offset="1" stop-color="#3840f7"/></linearGradient><linearGradient id="g98" x1="790" y1="475" x2="827" y2="475" href="#P"><stop stop-color="#53d8ff"/><stop offset="1" stop-color="#3840f7"/></linearGradient><linearGradient id="g99" x1="842" y1="475" x2="879" y2="475" href="#P"><stop stop-color="#53d8ff"/><stop offset="1" stop-color="#3840f7"/></linearGradient><linearGradient id="g100" x1="688" y1="509" x2="725" y2="509" href="#P"><stop stop-color="#53d8ff"/><stop offset="1" stop-color="#3840f7"/></linearGradient><linearGradient id="g101" x1="740" y1="509" x2="777" y2="509" href="#P"><stop stop-color="#53d8ff"/><stop offset="1" stop-color="#3840f7"/></linearGradient><linearGradient id="g102" x1="790" y1="509" x2="827" y2="509" href="#P"><stop stop-color="#53d8ff"/><stop offset="1" stop-color="#3840f7"/></linearGradient><linearGradient id="g103" x1="688" y1="544" x2="725" y2="544" href="#P"><stop stop-color="#53d8ff"/><stop offset="1" stop-color="#3840f7"/></linearGradient><linearGradient id="g104" x1="740" y1="544" x2="777" y2="544" href="#P"><stop stop-color="#53d8ff"/><stop offset="1" stop-color="#3840f7"/></linearGradient><linearGradient id="g105" x1="790" y1="544" x2="827" y2="544" href="#P"><stop stop-color="#53d8ff"/><stop offset="1" stop-color="#3840f7"/></linearGradient><linearGradient id="g106" x1="844" y1="510" x2="874" y2="510" href="#P"><stop stop-color="#53d8ff"/><stop offset="1" stop-color="#3840f7"/></linearGradient></defs><style>.a{opacity:.4;fill:url(#g1)}.b{opacity:.8;fill:url(#g2)}.c{fill:url(#g3)}.d{fill:#fff}.e{fill:url(#g4)}.f{fill:url(#g5)}.g{fill:url(#g6)}.h{fill:url(#g7)}.i{fill:url(#g8)}.j{fill:url(#g9)}.k{fill:url(#g10)}.l{fill:url(#g11)}.m{fill:url(#g12)}.n{fill:url(#g13)}.o{fill:url(#g14)}.p{opacity:.3;fill:url(#g15)}.q{fill:url(#g16)}.r{fill:url(#g17)}.s{fill:url(#g18)}.t{fill:url(#g19)}.u{opacity:.8;fill:#fff}.v{fill:url(#g20)}.w{fill:url(#g21)}.x{fill:url(#g22)}.y{fill:url(#g23)}.z{fill:url(#g24)}.A{fill:url(#g25)}.B{fill:url(#g26)}.C{fill:url(#g27)}.D{fill:url(#g28)}.E{fill:url(#g29)}.F{fill:url(#g30)}.G{fill:url(#g31)}.H{fill:url(#g32)}.I{fill:url(#g33)}.J{fill:url(#g34)}.K{fill:url(#g35)}.L{fill:url(#g36)}.M{fill:url(#g37)}.N{fill:url(#g38)}.O{fill:url(#g39)}.P{fill:url(#g40)}.Q{fill:url(#g41)}.R{fill:url(#g42)}.S{fill:url(#g43)}.T{fill:url(#g44)}.U{fill:url(#g45)}.V{fill:url(#g46)}.W{fill:url(#g47)}.X{opacity:.6;fill:url(#g48)}.Y{opacity:.6;fill:url(#g49)}.Z{fill:url(#g50)}.a0{fill:url(#g51)}.a1{fill:url(#g52)}.a2{fill:url(#g53)}.a3{opacity:1;fill:#fff}.a4{fill:url(#g54)}.a5{fill:url(#g55)}.a6{fill:url(#g56)}.a7{fill:url(#g57)}.a8{fill:url(#g58)}.a9{fill:url(#g59)}.aa{fill:url(#g60)}.ab{fill:url(#g61)}.ac{fill:url(#g62)}.ad{fill:url(#g63)}.ae{fill:url(#g64)}.af{fill:url(#g65)}.ag{fill:url(#g66)}.ah{fill:url(#g67)}.ai{fill:url(#g68)}.aj{fill:url(#g69)}.ak{fill:url(#g70)}.al{fill:url(#g71)}.am{fill:url(#g72)}.an{fill:url(#g73)}.ao{fill:url(#g74)}.ap{fill:url(#g75)}.aq{fill:url(#g76)}.ar{fill:url(#g77)}.as{fill:url(#g78)}.at{fill:url(#g79)}.au{fill:url(#g80)}.av{fill:url(#g81)}.aw{fill:url(#g82)}.ax{fill:url(#g83)}.ay{fill:url(#g84)}.az{fill:url(#g85)}.aA{fill:url(#g86)}.aB{fill:url(#g87)}.aC{fill:url(#g88)}.aD{fill:url(#g89)}.aE{fill:url(#g90)}.aF{fill:url(#g91)}.aG{opacity:.2;fill:#fff}.aH{opacity:.6;fill:url(#g92)}.aI{opacity:.6;fill:url(#g93)}.aJ{opacity:.6;fill:url(#g94)}.aK{fill:url(#g95)}.aL{opacity:.6;fill:url(#g96)}.aM{opacity:.6;fill:url(#g97)}.aN{opacity:.6;fill:url(#g98)}.aO{fill:url(#g99)}.aP{opacity:.6;fill:url(#g100)}.aQ{opacity:.6;fill:url(#g101)}.aR{opacity:.6;fill:url(#g102)}.aS{opacity:.6;fill:url(#g103)}.aT{opacity:.6;fill:url(#g104)}.aU{opacity:.6;fill:url(#g105)}.aV{fill:url(#g106)}</style><g style="opacity:.4"><path class="a" d="m948.6 535.5c-28.7 53.1-69.5 39.1-122.6 37.6-72.3-2-149.8 6.8-221.1-3.9-83.3-12.4-153.5-5-237.8-6.9-44.3-0.9-92.9-35.3-130.9-9.9-31.2 20.8-99.4 26.2-136.1 25.2-57.7-1.6-111.5-54.2-97.4-114.6 11.7-50.3 58.2-80.5 81.9-124.1 22.1-40.9 4.1-82.1 18.2-123.9 17.4-51.5 63.6-97.9 116-110.2 14-3.3 28.9-4.5 44.9-3.1 51.9 4.3 100.6 27.2 153.1 29.1 96.2 3.6 165.4-56 252-85.7 86.7-29.8 188.1-21.4 253.9 49.8 27.3 29.4 10.3 48.1 11.2 82.6 1.6 53.2 60 72.2 87.6 107.6 57.8 74.3-38.6 187-72.9 250.4z"/><path class="b" d="m921.6 516.6c-27.1 48.7-69.5 48.1-119.4 46.8-68.1-1.9-135.8-4-202.9-13.8-78.4-11.4-128.9-2.4-208.3-4.1-41.7-0.9-104.1-36.7-139.8-13.4-29.4 19.1-93.5 24.1-128.1 23.1-54.3-1.5-104.9-49.7-91.6-105.1 11-46.2 54.8-74 77-114 20.8-37.5 3.9-75.3 17.2-113.6 16.3-47.3 59.9-89.9 109.1-101.2 13.2-3 27.2-4.1 42.3-2.9 48.8 4 94.7 25 144 26.8 90.6 3.3 155.7-51.4 237.2-78.7 81.5-27.3 177-19.6 238.9 45.7 25.7 27.1 9.6 44.2 10.6 75.9 1.4 48.7 56.4 66.2 82.4 98.7 54.4 68.2-36.3 171.6-68.6 229.8z"/></g><path class="c" d="m294.1 496.3c0.4 4.3-3.8 7.6-7.9 6.4-22.8-7.1-85.5-33-116.2-109.5-25.9-64.6-46.1-97.2-56.3-111.4-2.2-3 0.7-7 4.2-5.8 38.8 12.4 162.3 64.1 176.2 220.3z"/><path class="d" d="m287.4 499.5c-0.4 0-0.8-0.2-1.1-0.4-0.7-0.8-78.4-72.5-118.5-160.7-0.4-0.7 0-1.6 0.7-2 0.8-0.3 1.7 0 2 0.8 39.8 87.6 117.1 158.9 117.9 159.6 0.6 0.6 0.6 1.6 0.1 2.2-0.3 0.3-0.7 0.5-1.1 0.5z"/><path class="e" d="m851.4 106.3c5.9 47.1 35.2 337.7-119.3 430.4-4.7 2.8-10.7-0.3-11.1-5.8-2.5-34.6-4.1-144.6 59.5-274.5 45.8-93.7 62.6-136 67.9-150.4 0.6-1.6 2.8-1.3 3 0.3z"/><path fill-rule="evenodd" class="d" d="m721 532.4q-0.4 0-0.7-0.2c-0.8-0.3-1-1.3-0.6-2 40.6-74.8 68.5-156.7 84.7-212.2 18.2-62.1 26.3-106.4 26.1-109.8-0.1-0.7 0.3-1.5 1.1-1.7 0.7-0.3 1.6 0.2 1.8 1 0.9 2.6-8.1 49.3-25.6 109.6-16.3 56.2-44.4 139-85.5 214.5-0.3 0.5-0.8 0.8-1.3 0.8zm109.6-324q0 0 0 0 0 0 0 0zm-0.1-0.2q0 0 0 0z"/><path class="f" d="m205.9 140.3c3 8.1 12.3 31.7 37.9 83.9 35.5 72.5 34.6 133.9 33.2 153.2-0.2 3.1-3.6 4.8-6.2 3.2-86.2-51.7-69.8-213.8-66.6-240.1 0.1-0.9 1.4-1 1.7-0.2z"/><path fill-rule="evenodd" class="d" d="m277 378.9c-0.5 0-1-0.2-1.3-0.7-43.3-79.6-63.1-178.1-62.1-181.4 0.3-0.8 1.1-1.3 1.9-1 0.7 0.2 1.2 0.9 1.1 1.6 0 4.5 18.9 100.6 61.7 179.3 0.4 0.7 0.2 1.7-0.6 2.1q-0.3 0.1-0.7 0.1zm-60.5-181.3q0 0.1 0 0.1 0 0 0-0.1z"/><path class="g" d="m737.6 515.1c6.5-19.2 27.5-60.5 90.7-89.3 20.4-9.2 43.3-36.7 56.2-52.9 2.8-3.4 8.3-1 7.6 3.4-24.2 153.3-115.6 155.2-146.8 151.2-6-0.8-9.7-6.8-7.7-12.4z"/><path class="d" d="m741.9 523.6c-0.6 0-1.1-0.4-1.4-1-0.2-0.8 0.2-1.6 0.9-1.9 84.7-30.4 124.3-102.6 124.6-103.3 0.4-0.8 1.3-1 2.1-0.6 0.7 0.4 1 1.3 0.6 2-0.1 0.2-10.1 18.7-30.6 40.7-18.9 20.3-50.8 47.9-95.6 64q-0.3 0.1-0.6 0.1z"/><path class="h" d="m778.3 364.7c9.2 72.9 1 150.6-5.4 194-2.9 19.9-20.1 34.5-40.3 34.4l-411.8-2.4c-30.1-0.2-54.8-24.1-55.7-54.1l-5.6-171.9z"/><path class="d" d="m718.1 582.5q0 0 0 0h-3c-0.3 0-0.5-0.2-0.5-0.5 0-0.3 0.2-0.5 0.5-0.5h3c0.2 0 0.5 0.3 0.5 0.5 0 0.3-0.3 0.5-0.5 0.5zm7 0c-0.3 0-0.5-0.2-0.5-0.5-0.1-0.3 0.2-0.5 0.4-0.5q1.5-0.1 3-0.3c0.2 0 0.5 0.1 0.5 0.4 0.1 0.3-0.1 0.5-0.4 0.6q-1.5 0.2-3 0.3 0 0 0 0zm-17 0q0 0 0 0h-3c-0.3 0-0.5-0.3-0.5-0.5 0-0.3 0.2-0.5 0.5-0.5q0 0 0 0h3c0.2 0 0.5 0.2 0.5 0.5 0 0.3-0.3 0.5-0.5 0.5zm-10-0.1q0 0 0 0h-3c-0.3 0-0.5-0.2-0.5-0.5 0-0.3 0.2-0.5 0.5-0.5q0 0 0 0h3c0.2 0 0.5 0.2 0.5 0.5 0 0.3-0.3 0.5-0.5 0.5zm-10 0q0 0 0 0l-3-0.1c-0.3 0-0.5-0.2-0.5-0.5 0-0.2 0.2-0.5 0.5-0.5q0 0 0 0l3 0.1c0.2 0 0.5 0.2 0.5 0.5 0 0.2-0.3 0.5-0.5 0.5zm-10-0.1q0 0 0 0h-3c-0.3 0-0.5-0.2-0.5-0.5 0-0.3 0.2-0.5 0.5-0.5h3c0.2 0 0.5 0.2 0.5 0.5 0 0.3-0.3 0.5-0.5 0.5zm-10-0.1q0 0 0 0h-3c-0.3 0-0.5-0.2-0.5-0.5 0-0.3 0.2-0.5 0.5-0.5q0 0 0 0h3c0.2 0 0.5 0.3 0.5 0.5 0 0.3-0.3 0.5-0.5 0.5zm-10 0q0 0 0 0h-3c-0.3 0-0.5-0.3-0.5-0.5 0-0.3 0.2-0.5 0.5-0.5q0 0 0 0h3c0.2 0 0.5 0.2 0.5 0.5 0 0.3-0.3 0.5-0.5 0.5zm-10-0.1q0 0 0 0h-3c-0.3 0-0.5-0.2-0.5-0.5 0-0.3 0.2-0.5 0.5-0.5q0 0 0 0h3c0.2 0 0.5 0.2 0.5 0.5 0 0.3-0.3 0.5-0.5 0.5zm-10 0q0 0 0 0l-3-0.1c-0.3 0-0.5-0.2-0.5-0.5 0-0.2 0.2-0.5 0.5-0.5q0 0 0 0l3 0.1c0.2 0 0.5 0.2 0.5 0.5 0 0.2-0.3 0.5-0.5 0.5zm-10-0.1q0 0 0 0h-3c-0.3 0-0.5-0.2-0.5-0.5 0-0.3 0.2-0.5 0.5-0.5h3c0.2 0 0.5 0.2 0.5 0.5 0 0.3-0.3 0.5-0.5 0.5zm-10-0.1q0 0 0 0h-3c-0.3 0-0.5-0.2-0.5-0.5 0-0.3 0.2-0.5 0.5-0.5q0 0 0 0h3c0.2 0 0.5 0.3 0.5 0.5 0 0.3-0.3 0.5-0.5 0.5zm-10 0q0 0 0 0h-3c-0.3 0-0.5-0.3-0.5-0.5 0-0.3 0.2-0.5 0.5-0.5q0 0 0 0h3c0.2 0 0.5 0.2 0.5 0.5 0 0.3-0.3 0.5-0.5 0.5zm-10-0.1q0 0 0 0h-3c-0.3 0-0.5-0.2-0.5-0.5 0-0.3 0.2-0.5 0.5-0.5q0 0 0 0h3c0.2 0 0.5 0.3 0.5 0.5 0 0.3-0.3 0.5-0.5 0.5zm-10 0q0 0 0 0l-3-0.1c-0.3 0-0.5-0.2-0.5-0.5 0-0.2 0.2-0.5 0.5-0.5q0 0 0 0l3 0.1c0.2 0 0.5 0.2 0.5 0.5 0 0.2-0.3 0.5-0.5 0.5zm-10-0.1q0 0 0 0h-3c-0.3 0-0.5-0.2-0.5-0.5 0-0.3 0.2-0.5 0.5-0.5h3c0.2 0 0.5 0.2 0.5 0.5 0 0.3-0.3 0.5-0.5 0.5zm-10-0.1q0 0 0 0h-3c-0.3 0-0.5-0.2-0.5-0.5 0-0.2 0.2-0.5 0.5-0.5q0 0 0 0h3c0.2 0.1 0.5 0.3 0.5 0.6 0 0.2-0.3 0.4-0.5 0.4zm-10 0q0 0 0 0h-3c-0.3 0-0.5-0.3-0.5-0.5 0-0.3 0.2-0.5 0.5-0.5q0 0 0 0h3c0.2 0 0.5 0.2 0.5 0.5 0 0.3-0.3 0.5-0.5 0.5zm-10-0.1q0 0 0 0h-3c-0.3 0-0.5-0.2-0.5-0.5 0-0.3 0.2-0.5 0.5-0.5q0 0 0 0h3c0.2 0 0.5 0.3 0.5 0.5 0 0.3-0.3 0.5-0.5 0.5zm-10 0q0 0 0 0h-3c-0.3 0-0.5-0.3-0.5-0.5 0-0.3 0.2-0.6 0.5-0.5h3c0.2 0 0.5 0.2 0.5 0.5 0 0.2-0.3 0.5-0.5 0.5zm-10-0.1q0 0 0 0h-3c-0.3 0-0.5-0.2-0.5-0.5 0-0.3 0.2-0.5 0.5-0.5h3c0.2 0 0.5 0.2 0.5 0.5 0 0.3-0.3 0.5-0.5 0.5zm-10 0q0 0 0 0l-3-0.1c-0.3 0-0.5-0.2-0.5-0.5 0-0.2 0.2-0.5 0.5-0.5q0 0 0 0l3 0.1c0.2 0 0.5 0.2 0.5 0.5 0 0.2-0.3 0.5-0.5 0.5zm-10-0.1q0 0 0 0h-3c-0.3 0-0.5-0.2-0.5-0.5 0-0.3 0.2-0.5 0.5-0.5q0 0 0 0h3c0.2 0 0.5 0.2 0.5 0.5 0 0.3-0.3 0.5-0.5 0.5zm-10-0.1q0 0 0 0h-3c-0.3 0-0.5-0.2-0.5-0.5 0-0.3 0.2-0.5 0.5-0.5q0 0 0 0h3c0.2 0 0.5 0.3 0.5 0.5 0 0.3-0.3 0.5-0.5 0.5zm-10 0q0 0 0 0h-3c-0.3 0-0.5-0.3-0.5-0.5 0-0.3 0.2-0.6 0.5-0.5h3c0.2 0 0.5 0.2 0.5 0.5 0 0.3-0.3 0.5-0.5 0.5zm-10-0.1q0 0 0 0h-3c-0.3 0-0.5-0.2-0.5-0.5 0-0.3 0.2-0.5 0.5-0.5q0 0 0 0h3c0.2 0 0.5 0.2 0.5 0.5 0 0.3-0.3 0.5-0.5 0.5zm-10 0q0 0 0 0l-3-0.1c-0.3 0-0.5-0.2-0.5-0.5 0-0.2 0.2-0.5 0.5-0.5q0 0 0 0l3 0.1c0.2 0 0.5 0.2 0.5 0.5 0 0.2-0.3 0.5-0.5 0.5zm-10-0.1q0 0 0 0h-3c-0.3 0-0.5-0.2-0.5-0.5 0-0.3 0.2-0.5 0.5-0.5q0 0 0 0h3c0.2 0 0.5 0.2 0.5 0.5 0 0.3-0.3 0.5-0.5 0.5zm-10-0.1q0 0 0 0h-3c-0.3 0-0.5-0.2-0.5-0.5 0-0.3 0.2-0.5 0.5-0.5q0 0 0 0h3c0.2 0 0.5 0.3 0.5 0.5 0 0.3-0.3 0.5-0.5 0.5zm-10 0q0 0 0 0h-3c-0.3 0-0.5-0.3-0.5-0.5 0-0.3 0.2-0.5 0.5-0.5h3c0.2 0 0.5 0.2 0.5 0.5 0 0.3-0.3 0.5-0.5 0.5zm-10-0.1q0 0 0 0h-3c-0.3 0-0.5-0.2-0.5-0.5 0-0.3 0.2-0.5 0.5-0.5q0 0 0 0h3c0.2 0 0.5 0.2 0.5 0.5 0 0.3-0.3 0.5-0.5 0.5zm-10 0q0 0 0 0l-3-0.1c-0.3 0-0.5-0.2-0.5-0.5 0-0.2 0.2-0.5 0.5-0.5q0 0 0 0l3 0.1c0.2 0 0.5 0.2 0.5 0.5 0 0.2-0.3 0.5-0.5 0.5zm-10-0.1q0 0 0 0h-3c-0.3 0-0.5-0.2-0.5-0.5 0-0.3 0.2-0.5 0.5-0.5q0 0 0 0h3c0.2 0 0.5 0.2 0.5 0.5 0 0.3-0.3 0.5-0.5 0.5zm-10-0.1q0 0 0 0h-3c-0.3 0-0.5-0.2-0.5-0.5 0-0.3 0.2-0.5 0.5-0.5h3c0.2 0 0.5 0.3 0.5 0.5 0 0.3-0.3 0.5-0.5 0.5zm336.7 0c-0.2 0-0.4-0.1-0.4-0.4-0.1-0.2 0-0.5 0.3-0.6q1.4-0.4 2.8-1c0.2-0.1 0.5 0 0.6 0.2 0.1 0.3 0 0.6-0.3 0.7q-1.4 0.6-2.8 1.1-0.1 0-0.2 0zm-346.7 0q0 0 0 0h-3c-0.3 0-0.5-0.3-0.5-0.5 0-0.3 0.2-0.5 0.5-0.5h3c0.2 0 0.5 0.2 0.5 0.5 0 0.3-0.3 0.5-0.5 0.5zm-10-0.1q0 0 0 0h-3c-0.3 0-0.5-0.2-0.5-0.5 0-0.3 0.2-0.5 0.5-0.5q0 0 0 0h3c0.2 0 0.5 0.3 0.5 0.5 0 0.3-0.3 0.5-0.5 0.5zm-10 0q0 0 0 0h-3c-0.3 0-0.5-0.3-0.5-0.6 0-0.2 0.2-0.4 0.5-0.4q0 0 0 0h3c0.2 0 0.5 0.2 0.5 0.5 0 0.2-0.3 0.5-0.5 0.5zm-10-0.1q0 0 0 0h-3c-0.3 0-0.5-0.2-0.5-0.5 0-0.3 0.2-0.5 0.5-0.5q0 0 0 0h3c0.2 0 0.5 0.2 0.5 0.5 0 0.3-0.3 0.5-0.5 0.5zm-10 0q0 0 0 0l-3-0.1c-0.3 0-0.5-0.2-0.5-0.5 0-0.2 0.2-0.5 0.5-0.5l3 0.1c0.2 0 0.5 0.2 0.5 0.5 0 0.2-0.3 0.5-0.5 0.5zm-10-0.1q0 0 0 0h-3c-0.3 0-0.5-0.3-0.5-0.5 0-0.3 0.2-0.5 0.5-0.5q0 0 0 0h3c0.2 0 0.5 0.2 0.5 0.5 0 0.3-0.3 0.5-0.5 0.5zm-10-0.1q0 0-0.1 0-1.5-0.1-3-0.3c-0.2 0-0.4-0.2-0.4-0.5 0-0.3 0.3-0.5 0.5-0.4q1.5 0.1 3 0.2c0.3 0 0.5 0.2 0.5 0.5 0 0.3-0.3 0.5-0.5 0.5zm-9.9-1.4q-0.1 0-0.1-0.1-1.5-0.3-3-0.7c-0.2-0.1-0.4-0.4-0.3-0.7 0.1-0.2 0.4-0.4 0.6-0.3q1.5 0.4 2.9 0.8c0.3 0 0.4 0.3 0.4 0.6-0.1 0.2-0.3 0.4-0.5 0.4zm425.6-2.6q-0.2 0-0.4-0.2c-0.1-0.2-0.1-0.5 0.1-0.7q1.3-0.8 2.5-1.7c0.2-0.2 0.5-0.1 0.7 0.1 0.1 0.2 0.1 0.5-0.1 0.7q-1.2 0.9-2.5 1.8-0.1 0-0.3 0zm-435.1-0.7q-0.1 0-0.2 0-1.3-0.6-2.7-1.3c-0.2-0.2-0.3-0.5-0.2-0.7 0.1-0.3 0.4-0.4 0.7-0.2q1.3 0.7 2.7 1.3c0.2 0.1 0.3 0.4 0.2 0.6-0.1 0.2-0.3 0.3-0.5 0.3zm-8.6-4.9q-0.2 0-0.3-0.1-1.2-0.9-2.4-1.8c-0.3-0.2-0.3-0.5-0.1-0.7 0.2-0.2 0.5-0.3 0.7-0.1q1.2 0.9 2.4 1.8c0.2 0.1 0.2 0.4 0.1 0.7q-0.2 0.2-0.4 0.2zm451.3-0.8q-0.2 0-0.3-0.2c-0.3-0.2-0.3-0.5-0.1-0.7q1-1.1 1.9-2.3c0.2-0.2 0.5-0.2 0.7-0.1 0.2 0.2 0.3 0.5 0.1 0.7q-0.9 1.2-1.9 2.4-0.2 0.2-0.4 0.2zm-458.9-5.7q-0.2 0-0.4-0.1-1-1.1-2-2.3c-0.2-0.2-0.2-0.5 0-0.7 0.2-0.2 0.5-0.1 0.7 0.1q1 1.1 2 2.2c0.2 0.2 0.2 0.5 0 0.7q-0.1 0.1-0.3 0.1zm464.5-2.6q-0.1 0-0.2 0c-0.3-0.2-0.4-0.5-0.2-0.7q0.6-1.3 1.2-2.7c0.1-0.2 0.4-0.4 0.7-0.3 0.2 0.1 0.3 0.4 0.2 0.7q-0.5 1.4-1.2 2.8c-0.1 0.1-0.3 0.2-0.5 0.2zm-470.8-5.2q-0.3 0-0.4-0.2-0.8-1.2-1.6-2.6c-0.2-0.2-0.1-0.5 0.2-0.6 0.2-0.2 0.5-0.1 0.7 0.1q0.7 1.3 1.5 2.6c0.2 0.2 0.1 0.5-0.1 0.7q-0.1 0-0.3 0zm474.1-4.2q0 0-0.1 0c-0.2 0-0.4-0.3-0.4-0.6q0.3-1.1 0.4-2.2l0.1-0.7c0.1-0.3 0.3-0.5 0.6-0.4 0.3 0 0.5 0.3 0.4 0.5l-0.1 0.7q-0.1 1.2-0.4 2.3c0 0.3-0.2 0.4-0.5 0.4zm-478.8-4.6c-0.2 0-0.4-0.1-0.5-0.3q-0.5-1.4-1.1-2.8c0-0.3 0.1-0.6 0.4-0.6 0.2-0.1 0.5 0 0.6 0.3q0.5 1.4 1.1 2.7c0.1 0.3-0.1 0.6-0.3 0.7q-0.1 0-0.2 0zm480.3-5.3q0 0 0 0c-0.3 0-0.5-0.3-0.5-0.5l0.4-3c0.1-0.3 0.3-0.5 0.6-0.4 0.3 0 0.5 0.3 0.4 0.5l-0.4 3c0 0.3-0.2 0.4-0.5 0.4zm-483.3-4.2c-0.2 0-0.4-0.2-0.5-0.4q-0.3-1.5-0.5-3c0-0.3 0.2-0.5 0.4-0.6 0.3 0 0.6 0.2 0.6 0.5q0.2 1.4 0.5 2.9c0.1 0.3-0.1 0.5-0.4 0.6q0 0-0.1 0zm484.6-5.7q0 0 0 0c-0.3 0-0.5-0.3-0.5-0.5l0.4-3c0.1-0.3 0.3-0.5 0.6-0.5 0.3 0.1 0.4 0.3 0.4 0.6l-0.4 3c0 0.2-0.2 0.4-0.5 0.4zm-485.7-4.2c-0.2 0-0.5-0.2-0.5-0.5l-0.1-3c0-0.3 0.2-0.5 0.5-0.5 0.3 0 0.5 0.2 0.5 0.5l0.1 3c0 0.2-0.2 0.5-0.5 0.5q0 0 0 0zm487-5.7q-0.1 0-0.1 0c-0.3 0-0.5-0.3-0.4-0.6q0.1-1.4 0.3-2.9c0-0.3 0.3-0.5 0.5-0.5 0.3 0 0.5 0.3 0.5 0.6q-0.2 1.5-0.4 3c0 0.2-0.2 0.4-0.4 0.4zm-487.3-4.3c-0.3 0-0.5-0.2-0.5-0.5l-0.1-3c0-0.3 0.2-0.5 0.5-0.5 0.3 0 0.5 0.2 0.5 0.5l0.1 3c0 0.2-0.2 0.5-0.5 0.5q0 0 0 0zm488.3-5.6q0 0 0-0.1c-0.3 0-0.5-0.2-0.5-0.5q0.2-1.5 0.4-3c0-0.3 0.2-0.5 0.5-0.4 0.3 0 0.5 0.2 0.4 0.5q-0.1 1.5-0.3 3c0 0.3-0.2 0.5-0.5 0.5zm-488.6-4.4c-0.3 0-0.5-0.2-0.5-0.5l-0.1-3c0-0.3 0.2-0.5 0.5-0.5 0.2 0 0.5 0.2 0.5 0.5l0.1 3c0 0.2-0.2 0.5-0.5 0.5q0 0 0 0zm489.6-5.6q0 0 0 0c-0.3 0-0.5-0.3-0.5-0.5q0.2-1.5 0.3-3c0-0.3 0.3-0.5 0.5-0.5 0.3 0 0.5 0.3 0.5 0.6q-0.1 1.5-0.3 2.9c0 0.3-0.2 0.5-0.5 0.5zm-489.9-4.4c-0.3 0-0.5-0.2-0.5-0.5l-0.1-3c0-0.3 0.2-0.5 0.4-0.5 0.3 0 0.6 0.2 0.6 0.5l0.1 3c0 0.2-0.3 0.5-0.5 0.5q0 0 0 0zm490.8-5.6q0 0-0.1 0c-0.2 0-0.4-0.2-0.4-0.5l0.2-3c0-0.3 0.3-0.5 0.6-0.5 0.2 0.1 0.4 0.3 0.4 0.6l-0.2 3c0 0.2-0.3 0.4-0.5 0.4zm-491.2-4.4c-0.2 0-0.5-0.2-0.5-0.5l-0.1-3c0-0.3 0.2-0.5 0.5-0.5 0.3 0 0.5 0.2 0.5 0.5l0.1 3c0 0.2-0.2 0.5-0.4 0.5q-0.1 0-0.1 0zm491.9-5.5q0 0 0 0c-0.3-0.1-0.5-0.3-0.5-0.6l0.2-3c0.1-0.2 0.3-0.5 0.6-0.4 0.2 0 0.5 0.2 0.4 0.5l-0.2 3c0 0.3-0.2 0.5-0.5 0.5zm-492.2-4.5c-0.3 0-0.5-0.2-0.5-0.5l-0.1-3c0-0.3 0.2-0.5 0.5-0.5 0.3 0 0.5 0.2 0.5 0.5l0.1 3c0 0.3-0.2 0.5-0.5 0.5q0 0 0 0zm492.9-5.5q-0.1 0-0.1 0c-0.2 0-0.5-0.3-0.4-0.6q0-1.4 0.1-2.9c0-0.3 0.3-0.6 0.5-0.5 0.3 0 0.5 0.2 0.5 0.5q-0.1 1.5-0.1 3c-0.1 0.3-0.3 0.5-0.5 0.5zm-493.2-4.5c-0.3 0-0.5-0.2-0.5-0.5l-0.1-3c0-0.3 0.2-0.5 0.5-0.5 0.3 0 0.5 0.2 0.5 0.5l0.1 3c0 0.3-0.2 0.5-0.5 0.5q0 0 0 0zm493.7-5.5q-0.1 0-0.1 0c-0.2 0-0.5-0.3-0.4-0.5q0-1.5 0.1-3c0-0.3 0.2-0.5 0.5-0.5 0.3 0 0.5 0.2 0.5 0.5q-0.1 1.5-0.2 3c0 0.3-0.2 0.5-0.4 0.5zm-494-4.5c-0.3 0-0.5-0.2-0.5-0.5l-0.1-3c0-0.3 0.2-0.5 0.5-0.5 0.2 0 0.5 0.2 0.5 0.5l0.1 3c0 0.3-0.2 0.5-0.5 0.5q0 0 0 0zm494.3-5.5q0 0 0 0c-0.3 0-0.5-0.2-0.5-0.5q0.1-1.5 0.1-3c0-0.3 0.2-0.5 0.5-0.5 0.3 0 0.5 0.2 0.5 0.5q0 1.5-0.1 3c0 0.3-0.2 0.5-0.5 0.5zm-494.6-4.5c-0.3 0-0.5-0.2-0.5-0.5l-0.1-3c-0.1-0.2 0.2-0.5 0.4-0.5 0.3 0 0.5 0.2 0.6 0.5l0.1 3c0 0.3-0.3 0.5-0.5 0.5q0 0 0 0zm494.8-5.5q0 0 0 0c-0.2 0-0.5-0.2-0.5-0.5q0.1-1.5 0.1-3c0-0.3 0.2-0.5 0.5-0.5q0 0 0 0c0.3 0 0.5 0.2 0.5 0.5q0 1.5-0.1 3c0 0.3-0.2 0.5-0.5 0.5zm-495.2-4.5c-0.2 0-0.5-0.2-0.5-0.5l-0.1-3c0-0.2 0.2-0.5 0.5-0.5 0.3 0 0.5 0.2 0.5 0.5l0.1 3c0 0.3-0.2 0.5-0.5 0.5q0 0 0 0zm495.3-5.5c-0.3 0-0.5-0.2-0.5-0.5v-0.2q0-1.4 0-2.8c0-0.3 0.2-0.5 0.5-0.5q0 0 0 0c0.3 0 0.5 0.2 0.5 0.5q0 1.4 0 2.8v0.2c0 0.3-0.2 0.5-0.5 0.5zm-495.6-4.5c-0.3 0-0.5-0.2-0.5-0.5l-0.1-3c0-0.2 0.2-0.5 0.5-0.5 0.3 0 0.5 0.2 0.5 0.5l0.1 3c0 0.3-0.2 0.5-0.5 0.5q0 0 0 0zm495.5-5.5c-0.2 0-0.5-0.2-0.5-0.5q0-1.5 0-3c0-0.3 0.2-0.5 0.5-0.5 0.2 0 0.5 0.2 0.5 0.5q0 1.5 0 3c0 0.3-0.2 0.5-0.5 0.5q0 0 0 0zm-495.8-4.5c-0.3 0-0.5-0.2-0.5-0.5l-0.1-3c0-0.2 0.2-0.5 0.5-0.5 0.3 0 0.5 0.2 0.5 0.5l0.1 3c0 0.3-0.2 0.5-0.5 0.5q0 0 0 0zm495.6-5.5c-0.3 0-0.5-0.2-0.5-0.5q0-1.5-0.1-3c0-0.3 0.2-0.5 0.5-0.5 0.3 0 0.5 0.2 0.5 0.5q0.1 1.5 0.1 3c0 0.3-0.2 0.5-0.5 0.5q0 0 0 0zm-495.9-4.5c-0.3 0-0.5-0.2-0.5-0.5l-0.1-3c0-0.2 0.2-0.5 0.5-0.5 0.2 0 0.5 0.2 0.5 0.5l0.1 3c0 0.3-0.2 0.5-0.5 0.5q0 0 0 0zm495.5-5.5c-0.3 0-0.5-0.2-0.5-0.5q-0.1-1.5-0.2-3c0-0.2 0.2-0.5 0.5-0.5 0.3 0 0.5 0.2 0.5 0.5q0.1 1.5 0.2 3c0 0.3-0.2 0.5-0.5 0.5q0 0 0 0zm-495.9-4.5c-0.2 0-0.4-0.2-0.5-0.4l-0.1-3c0-0.3 0.3-0.6 0.5-0.6 0.3 0 0.5 0.2 0.5 0.5l0.1 3c0.1 0.3-0.2 0.5-0.4 0.5q0 0-0.1 0zm495.3-5.5c-0.2 0-0.5-0.2-0.5-0.4q-0.1-1.5-0.2-3c0-0.3 0.2-0.5 0.5-0.6 0.3 0 0.5 0.2 0.5 0.5q0.1 1.5 0.2 3c0 0.3-0.2 0.5-0.4 0.5q-0.1 0-0.1 0zm-495.6-4.5c-0.2 0-0.5-0.2-0.5-0.4l-0.1-3c0-0.3 0.2-0.5 0.5-0.6 0.3 0 0.5 0.2 0.5 0.5l0.1 3c0 0.3-0.2 0.5-0.5 0.5q0 0 0 0zm494.8-5.4c-0.2 0-0.4-0.2-0.5-0.5q-0.1-1.5-0.2-3c-0.1-0.3 0.1-0.5 0.4-0.5 0.3 0 0.5 0.1 0.6 0.4q0.1 1.5 0.2 3c0.1 0.3-0.1 0.5-0.4 0.6q0 0-0.1 0zm-495.1-4.6c-0.3 0-0.5-0.2-0.5-0.4l-0.1-3c0-0.3 0.2-0.5 0.5-0.6 0.3 0 0.5 0.3 0.5 0.5l0.1 3c0 0.3-0.2 0.5-0.5 0.5q0 0 0 0zm494.2-5.4c-0.3 0-0.5-0.2-0.5-0.4q-0.2-1.5-0.4-3c0-0.3 0.2-0.5 0.5-0.6 0.2 0 0.5 0.2 0.5 0.5q0.2 1.5 0.4 3c0 0.2-0.2 0.5-0.5 0.5q0 0 0 0zm-494.5-4.5c-0.3 0-0.5-0.3-0.5-0.5l-0.1-3.5h1.8c0.3 0 0.5 0.2 0.5 0.5 0 0.2-0.2 0.5-0.5 0.5h-0.8l0.1 2.4c0 0.3-0.2 0.5-0.5 0.6q0 0 0 0zm491.2-3h-3c-0.3 0-0.5-0.3-0.5-0.5 0-0.3 0.2-0.5 0.5-0.5h3c0.3 0 0.5 0.2 0.5 0.5 0 0.2-0.2 0.5-0.5 0.5zm-10 0h-3c-0.3 0-0.5-0.3-0.5-0.5 0-0.3 0.2-0.5 0.5-0.5h3c0.3 0 0.5 0.2 0.5 0.5 0 0.2-0.2 0.5-0.5 0.5zm-10 0h-3c-0.3 0-0.5-0.3-0.5-0.5 0-0.3 0.2-0.5 0.5-0.5h3c0.3 0 0.5 0.2 0.5 0.5 0 0.2-0.2 0.5-0.5 0.5zm-10 0h-3c-0.3 0-0.5-0.3-0.5-0.5 0-0.3 0.2-0.5 0.5-0.5h3c0.3 0 0.5 0.2 0.5 0.5 0 0.2-0.2 0.5-0.5 0.5zm-10 0h-3c-0.3 0-0.5-0.3-0.5-0.5 0-0.3 0.2-0.5 0.5-0.5h3c0.3 0 0.5 0.2 0.5 0.5 0 0.2-0.2 0.5-0.5 0.5zm-10 0h-3c-0.3 0-0.5-0.3-0.5-0.5 0-0.3 0.2-0.5 0.5-0.5h3c0.3 0 0.5 0.2 0.5 0.5 0 0.2-0.2 0.5-0.5 0.5zm-10 0h-3c-0.3 0-0.5-0.3-0.5-0.5 0-0.3 0.2-0.5 0.5-0.5h3c0.3 0 0.5 0.2 0.5 0.5 0 0.2-0.2 0.5-0.5 0.5zm-10 0h-3c-0.3 0-0.5-0.3-0.5-0.5 0-0.3 0.2-0.5 0.5-0.5h3c0.3 0 0.5 0.2 0.5 0.5 0 0.2-0.2 0.5-0.5 0.5zm-10 0h-3c-0.3 0-0.5-0.3-0.5-0.5 0-0.3 0.2-0.5 0.5-0.5h3c0.3 0 0.5 0.2 0.5 0.5 0 0.2-0.2 0.5-0.5 0.5zm-10 0h-3c-0.3 0-0.5-0.3-0.5-0.5 0-0.3 0.2-0.5 0.5-0.5h3c0.3 0 0.5 0.2 0.5 0.5 0 0.2-0.2 0.5-0.5 0.5zm-10 0h-3c-0.3 0-0.5-0.3-0.5-0.5 0-0.3 0.2-0.5 0.5-0.5h3c0.3 0 0.5 0.2 0.5 0.5 0 0.2-0.2 0.5-0.5 0.5zm-10 0h-3c-0.3 0-0.5-0.3-0.5-0.5 0-0.3 0.2-0.5 0.5-0.5h3c0.3 0 0.5 0.2 0.5 0.5 0 0.2-0.2 0.5-0.5 0.5zm-10 0h-3c-0.3 0-0.5-0.3-0.5-0.5 0-0.3 0.2-0.5 0.5-0.5h3c0.3 0 0.5 0.2 0.5 0.5 0 0.2-0.2 0.5-0.5 0.5zm-10 0h-3c-0.3 0-0.5-0.3-0.5-0.5 0-0.3 0.2-0.5 0.5-0.5h3c0.3 0 0.5 0.2 0.5 0.5 0 0.2-0.2 0.5-0.5 0.5zm-10 0h-3c-0.3 0-0.5-0.3-0.5-0.5 0-0.3 0.2-0.5 0.5-0.5h3c0.3 0 0.5 0.2 0.5 0.5 0 0.2-0.2 0.5-0.5 0.5zm-10 0h-3c-0.3 0-0.5-0.3-0.5-0.5 0-0.3 0.2-0.5 0.5-0.5h3c0.3 0 0.5 0.2 0.5 0.5 0 0.2-0.2 0.5-0.5 0.5zm-10 0h-3c-0.3 0-0.5-0.3-0.5-0.5 0-0.3 0.2-0.5 0.5-0.5h3c0.3 0 0.5 0.2 0.5 0.5 0 0.2-0.2 0.5-0.5 0.5zm-10 0h-3c-0.3 0-0.5-0.3-0.5-0.5 0-0.3 0.2-0.5 0.5-0.5h3c0.3 0 0.5 0.2 0.5 0.5 0 0.2-0.2 0.5-0.5 0.5zm-10 0h-3c-0.3 0-0.5-0.3-0.5-0.5 0-0.3 0.2-0.5 0.5-0.5h3c0.3 0 0.5 0.2 0.5 0.5 0 0.2-0.2 0.5-0.5 0.5zm-10 0h-3c-0.3 0-0.5-0.3-0.5-0.5 0-0.3 0.2-0.5 0.5-0.5h3c0.3 0 0.5 0.2 0.5 0.5 0 0.2-0.2 0.5-0.5 0.5zm-10 0h-3c-0.3 0-0.5-0.3-0.5-0.5 0-0.3 0.2-0.5 0.5-0.5h3c0.3 0 0.5 0.2 0.5 0.5 0 0.2-0.2 0.5-0.5 0.5zm-10 0h-3c-0.3 0-0.5-0.3-0.5-0.5 0-0.3 0.2-0.5 0.5-0.5h3c0.3 0 0.5 0.2 0.5 0.5 0 0.2-0.2 0.5-0.5 0.5zm-10 0h-3c-0.3 0-0.5-0.3-0.5-0.5 0-0.3 0.2-0.5 0.5-0.5h3c0.3 0 0.5 0.2 0.5 0.5 0 0.2-0.2 0.5-0.5 0.5zm-10 0h-3c-0.3 0-0.5-0.3-0.5-0.5 0-0.3 0.2-0.5 0.5-0.5h3c0.3 0 0.5 0.2 0.5 0.5 0 0.2-0.2 0.5-0.5 0.5zm-10 0h-3c-0.3 0-0.5-0.3-0.5-0.5 0-0.3 0.2-0.5 0.5-0.5h3c0.3 0 0.5 0.2 0.5 0.5 0 0.2-0.2 0.5-0.5 0.5zm-10 0h-3c-0.3 0-0.5-0.3-0.5-0.5 0-0.3 0.2-0.5 0.5-0.5h3c0.3 0 0.5 0.2 0.5 0.5 0 0.2-0.2 0.5-0.5 0.5zm-10 0h-3c-0.3 0-0.5-0.3-0.5-0.5 0-0.3 0.2-0.5 0.5-0.5h3c0.3 0 0.5 0.2 0.5 0.5 0 0.2-0.2 0.5-0.5 0.5zm-10 0h-3c-0.3 0-0.5-0.3-0.5-0.5 0-0.3 0.2-0.5 0.5-0.5h3c0.3 0 0.5 0.2 0.5 0.5 0 0.2-0.2 0.5-0.5 0.5zm-10 0h-3c-0.3 0-0.5-0.3-0.5-0.5 0-0.3 0.2-0.5 0.5-0.5h3c0.3 0 0.5 0.2 0.5 0.5 0 0.2-0.2 0.5-0.5 0.5zm-10 0h-3c-0.3 0-0.5-0.3-0.5-0.5 0-0.3 0.2-0.5 0.5-0.5h3c0.3 0 0.5 0.2 0.5 0.5 0 0.2-0.2 0.5-0.5 0.5zm-10 0h-3c-0.3 0-0.5-0.3-0.5-0.5 0-0.3 0.2-0.5 0.5-0.5h3c0.3 0 0.5 0.2 0.5 0.5 0 0.2-0.2 0.5-0.5 0.5zm-10 0h-3c-0.3 0-0.5-0.3-0.5-0.5 0-0.3 0.2-0.5 0.5-0.5h3c0.3 0 0.5 0.2 0.5 0.5 0 0.2-0.2 0.5-0.5 0.5zm-10 0h-3c-0.3 0-0.5-0.3-0.5-0.5 0-0.3 0.2-0.5 0.5-0.5h3c0.3 0 0.5 0.2 0.5 0.5 0 0.2-0.2 0.5-0.5 0.5zm-10 0h-3c-0.3 0-0.5-0.3-0.5-0.5 0-0.3 0.2-0.5 0.5-0.5h3c0.3 0 0.5 0.2 0.5 0.5 0 0.2-0.2 0.5-0.5 0.5zm-10 0h-3c-0.3 0-0.5-0.3-0.5-0.5 0-0.3 0.2-0.5 0.5-0.5h3c0.3 0 0.5 0.2 0.5 0.5 0 0.2-0.2 0.5-0.5 0.5zm-10 0h-3c-0.3 0-0.5-0.3-0.5-0.5 0-0.3 0.2-0.5 0.5-0.5h3c0.3 0 0.5 0.2 0.5 0.5 0 0.2-0.2 0.5-0.5 0.5zm-10 0h-3c-0.3 0-0.5-0.3-0.5-0.5 0-0.3 0.2-0.5 0.5-0.5h3c0.3 0 0.5 0.2 0.5 0.5 0 0.2-0.2 0.5-0.5 0.5zm-10 0h-3c-0.3 0-0.5-0.3-0.5-0.5 0-0.3 0.2-0.5 0.5-0.5h3c0.3 0 0.5 0.2 0.5 0.5 0 0.2-0.2 0.5-0.5 0.5zm-10 0h-3c-0.3 0-0.5-0.3-0.5-0.5 0-0.3 0.2-0.5 0.5-0.5h3c0.3 0 0.5 0.2 0.5 0.5 0 0.2-0.2 0.5-0.5 0.5zm-10 0h-3c-0.3 0-0.5-0.3-0.5-0.5 0-0.3 0.2-0.5 0.5-0.5h3c0.3 0 0.5 0.2 0.5 0.5 0 0.2-0.2 0.5-0.5 0.5zm-10 0h-3c-0.3 0-0.5-0.3-0.5-0.5 0-0.3 0.2-0.5 0.5-0.5h3c0.3 0 0.5 0.2 0.5 0.5 0 0.2-0.2 0.5-0.5 0.5zm-10 0h-3c-0.3 0-0.5-0.3-0.5-0.5 0-0.3 0.2-0.5 0.5-0.5h3c0.3 0 0.5 0.2 0.5 0.5 0 0.2-0.2 0.5-0.5 0.5zm-10 0h-3c-0.3 0-0.5-0.3-0.5-0.5 0-0.3 0.2-0.5 0.5-0.5h3c0.3 0 0.5 0.2 0.5 0.5 0 0.2-0.2 0.5-0.5 0.5zm-10 0h-3c-0.3 0-0.5-0.3-0.5-0.5 0-0.3 0.2-0.5 0.5-0.5h3c0.3 0 0.5 0.2 0.5 0.5 0 0.2-0.2 0.5-0.5 0.5zm-10 0h-3c-0.3 0-0.5-0.3-0.5-0.5 0-0.3 0.2-0.5 0.5-0.5h3c0.3 0 0.5 0.2 0.5 0.5 0 0.2-0.2 0.5-0.5 0.5zm-10 0h-3c-0.3 0-0.5-0.3-0.5-0.5 0-0.3 0.2-0.5 0.5-0.5h3c0.3 0 0.5 0.2 0.5 0.5 0 0.2-0.2 0.5-0.5 0.5zm-10 0h-3c-0.3 0-0.5-0.3-0.5-0.5 0-0.3 0.2-0.5 0.5-0.5h3c0.3 0 0.5 0.2 0.5 0.5 0 0.2-0.2 0.5-0.5 0.5zm-10 0h-3c-0.3 0-0.5-0.3-0.5-0.5 0-0.3 0.2-0.5 0.5-0.5h3c0.3 0 0.5 0.2 0.5 0.5 0 0.2-0.2 0.5-0.5 0.5zm-10 0h-3c-0.3 0-0.5-0.3-0.5-0.5 0-0.3 0.2-0.5 0.5-0.5h3c0.3 0 0.5 0.2 0.5 0.5 0 0.2-0.2 0.5-0.5 0.5z"/><path class="i" d="m380.2 239.8l1.3-13.3c1.4-3.1 4.3-5.4 7.7-5.9 12.9-2.1 44.7-5.7 60 5.8l2.3 15.4z"/><path class="j" d="m420.3 227q-4.4 1.1-8.9 0c-3.5-0.9-6.1-4.1-6.1-7.7v-41.6h21.2v41.5c0 3.7-2.6 7-6.2 7.8z"/><path class="k" d="m585 239.8l1.2-13.3c1.4-3.1 4.3-5.4 7.7-5.9 12.9-2.1 44.7-5.7 60 5.8l2.3 15.4z"/><path class="l" d="m625.1 227q-4.5 1.1-8.9 0c-3.6-0.9-6.1-4.1-6.1-7.7v-46h21.1v45.9c0 3.7-2.5 7-6.1 7.8z"/><path class="m" d="m393.3 180.4c-2-8.5-1-16.8 0.5-23 1.6-6.6 6.3-12 12.6-14.5 59.5-23.5 167.5-23.5 209.9-22.5 12.7 0.3 23.5 9.6 25.4 22.2 1.6 11 0.5 21.7-0.7 28.8-0.9 5.1-5.3 8.8-10.5 9l-227.3 7.5c-4.7 0.2-8.8-3-9.9-7.5z"/><path class="d" d="m399.2 176.1c-0.5 0-0.9-0.4-0.9-0.9-0.1-0.4-0.9-8.9 1.3-17.1 1.7-6.3 6.7-11.3 12.9-13.2 12.7-3.7 36.9-10 56.7-10.5 0.5 0 1 0.4 1 0.9 0 0.6-0.4 1-1 1.1-19.5 0.5-43.5 6.8-56.1 10.5-5.6 1.6-10 6.1-11.6 11.7-2.1 7.8-1.3 16.3-1.3 16.4 0.1 0.5-0.3 1-0.8 1.1q-0.1 0-0.2 0z"/><path class="n" d="m274.8 234.6c73.4-0.9 391.1-4.2 483.4 6.9 7.9 0.9 14.4 6.8 16.1 14.5 5.5 24.7 16.5 82 15.2 138.7-0.2 7.7-5.9 14.3-13.5 15.7l-210.7 39.9h-74.8l-224.4-44.7c-7.9-1.5-13.8-8.2-14.2-16.2-1.4-28.6-3.7-95.6 4-138.7 1.6-9.2 9.5-15.9 18.9-16.1z"/><path class="d" d="m563.6 432.6h-3c-0.3 0-0.5-0.2-0.5-0.5 0-0.3 0.2-0.5 0.5-0.5h3c0.3 0 0.5 0.2 0.5 0.5 0 0.3-0.2 0.5-0.5 0.5zm-10 0h-3c-0.3 0-0.5-0.2-0.5-0.5 0-0.3 0.2-0.5 0.5-0.5h3c0.3 0 0.5 0.2 0.5 0.5 0 0.3-0.2 0.5-0.5 0.5zm-10 0h-3c-0.3 0-0.5-0.2-0.5-0.5 0-0.3 0.2-0.5 0.5-0.5h3c0.3 0 0.5 0.2 0.5 0.5 0 0.3-0.2 0.5-0.5 0.5zm-10 0h-3c-0.3 0-0.5-0.2-0.5-0.5 0-0.3 0.2-0.5 0.5-0.5h3c0.3 0 0.5 0.2 0.5 0.5 0 0.3-0.2 0.5-0.5 0.5zm-10 0h-3c-0.3 0-0.5-0.2-0.5-0.5 0-0.3 0.2-0.5 0.5-0.5h3c0.3 0 0.5 0.2 0.5 0.5 0 0.3-0.2 0.5-0.5 0.5zm-10 0h-3c-0.3 0-0.5-0.2-0.5-0.5 0-0.3 0.2-0.5 0.5-0.5h3c0.3 0 0.5 0.2 0.5 0.5 0 0.3-0.2 0.5-0.5 0.5zm-10 0h-3c-0.3 0-0.5-0.2-0.5-0.5 0-0.3 0.2-0.5 0.5-0.5h3c0.3 0 0.5 0.2 0.5 0.5 0 0.3-0.2 0.5-0.5 0.5zm-10 0h-1.3l-3-0.6c-0.3 0-0.5-0.3-0.4-0.6 0-0.2 0.3-0.4 0.6-0.4l2.9 0.6h1.2c0.3 0 0.5 0.2 0.5 0.5 0 0.3-0.2 0.5-0.5 0.5zm76.9-1.3c-0.2 0-0.5-0.2-0.5-0.4-0.1-0.3 0.1-0.5 0.4-0.6l2.9-0.5c0.3-0.1 0.6 0.1 0.6 0.4 0.1 0.2-0.1 0.5-0.4 0.5l-2.9 0.6q-0.1 0-0.1 0zm-88-0.6q-0.1 0-0.1-0.1l-2.9-0.5c-0.3-0.1-0.5-0.4-0.4-0.6 0-0.3 0.3-0.5 0.6-0.4l2.9 0.6c0.3 0 0.4 0.3 0.4 0.6-0.1 0.2-0.3 0.4-0.5 0.4zm97.8-1.2c-0.2 0-0.4-0.2-0.5-0.5 0-0.2 0.2-0.5 0.4-0.5l3-0.6c0.2 0 0.5 0.1 0.6 0.4 0 0.3-0.2 0.5-0.4 0.6l-3 0.5q0 0.1-0.1 0.1zm-107.6-0.8q-0.1 0-0.1 0l-3-0.6c-0.2 0-0.4-0.3-0.3-0.6 0-0.2 0.3-0.4 0.5-0.4l3 0.6c0.3 0.1 0.4 0.3 0.4 0.6-0.1 0.2-0.3 0.4-0.5 0.4zm117.4-1.1c-0.2 0-0.4-0.2-0.5-0.4 0-0.3 0.2-0.5 0.4-0.6l3-0.6c0.3 0 0.5 0.2 0.6 0.4 0 0.3-0.1 0.6-0.4 0.6l-3 0.6q0 0-0.1 0zm-127.2-0.8q-0.1 0-0.1-0.1l-3-0.5c-0.2-0.1-0.4-0.4-0.4-0.6 0.1-0.3 0.4-0.5 0.6-0.4l3 0.6c0.2 0 0.4 0.3 0.4 0.6-0.1 0.2-0.3 0.4-0.5 0.4zm137.1-1.1c-0.3 0-0.5-0.1-0.5-0.4-0.1-0.2 0.1-0.5 0.4-0.6l2.9-0.5c0.3-0.1 0.6 0.1 0.6 0.4 0.1 0.3-0.1 0.5-0.4 0.6l-2.9 0.5q-0.1 0-0.1 0zm-146.9-0.9q-0.1 0-0.1 0l-3-0.6c-0.2 0-0.4-0.3-0.4-0.6 0.1-0.2 0.4-0.4 0.6-0.4l3 0.6c0.2 0.1 0.4 0.3 0.4 0.6-0.1 0.2-0.3 0.4-0.5 0.4zm156.7-0.9c-0.2 0-0.5-0.2-0.5-0.4-0.1-0.3 0.1-0.6 0.4-0.6l2.9-0.6c0.3 0 0.6 0.2 0.6 0.4 0.1 0.3-0.1 0.6-0.4 0.6l-2.9 0.6q-0.1 0-0.1 0zm-166.5-1q-0.1 0-0.1-0.1l-3-0.5c-0.2-0.1-0.4-0.4-0.4-0.6 0.1-0.3 0.3-0.5 0.6-0.4l3 0.6c0.2 0 0.4 0.3 0.4 0.6-0.1 0.2-0.3 0.4-0.5 0.4zm176.3-0.9c-0.2 0-0.4-0.2-0.5-0.4 0-0.3 0.2-0.5 0.4-0.6l3-0.5c0.2-0.1 0.5 0.1 0.6 0.4 0 0.2-0.2 0.5-0.4 0.6l-3 0.5q0 0-0.1 0zm-186.1-1.1q-0.1 0-0.1 0l-3-0.6c-0.3 0-0.4-0.3-0.4-0.6 0.1-0.2 0.3-0.4 0.6-0.4l3 0.6c0.2 0.1 0.4 0.3 0.3 0.6 0 0.2-0.2 0.4-0.4 0.4zm195.9-0.7c-0.2 0-0.4-0.2-0.4-0.5-0.1-0.2 0.1-0.5 0.4-0.5l2.9-0.6c0.3 0 0.5 0.1 0.6 0.4 0 0.3-0.1 0.5-0.4 0.6l-3 0.5q0 0.1-0.1 0.1zm-205.8-1.2q0 0-0.1-0.1l-2.9-0.5c-0.3-0.1-0.4-0.4-0.4-0.6 0.1-0.3 0.3-0.5 0.6-0.4l2.9 0.6c0.3 0 0.5 0.3 0.4 0.6 0 0.2-0.2 0.4-0.5 0.4zm215.7-0.7c-0.3 0-0.5-0.2-0.5-0.4-0.1-0.3 0.1-0.5 0.4-0.6l2.9-0.6c0.3 0 0.6 0.2 0.6 0.4 0.1 0.3-0.1 0.6-0.4 0.6l-2.9 0.6q-0.1 0-0.1 0zm-225.5-1.3q0 0-0.1 0l-2.9-0.6c-0.3 0-0.4-0.3-0.4-0.6 0.1-0.2 0.3-0.4 0.6-0.4l2.9 0.6c0.3 0.1 0.5 0.3 0.4 0.6 0 0.2-0.2 0.4-0.5 0.4zm235.3-0.6c-0.2 0-0.5-0.1-0.5-0.4 0-0.2 0.1-0.5 0.4-0.6l2.9-0.5c0.3-0.1 0.6 0.1 0.6 0.4 0.1 0.3-0.1 0.5-0.4 0.6l-2.9 0.5q-0.1 0-0.1 0zm-245.1-1.3q0 0-0.1 0l-2.9-0.6c-0.3-0.1-0.5-0.4-0.4-0.6 0.1-0.3 0.3-0.5 0.6-0.4l2.9 0.6c0.3 0 0.5 0.3 0.4 0.6 0 0.2-0.2 0.4-0.5 0.4zm254.9-0.5c-0.2 0-0.4-0.2-0.5-0.4 0-0.3 0.2-0.6 0.4-0.6l3-0.6c0.2 0 0.5 0.2 0.6 0.4 0 0.3-0.2 0.6-0.4 0.6l-3 0.6q0 0-0.1 0zm-264.7-1.5q0 0-0.1 0l-2.9-0.6c-0.3 0-0.5-0.3-0.4-0.6 0-0.2 0.3-0.4 0.6-0.4l2.9 0.6c0.3 0.1 0.5 0.3 0.4 0.6 0 0.2-0.2 0.4-0.5 0.4zm274.5-0.4c-0.2 0-0.4-0.1-0.4-0.4-0.1-0.3 0.1-0.5 0.4-0.6l2.9-0.5c0.3-0.1 0.5 0.1 0.6 0.4 0 0.2-0.1 0.5-0.4 0.6l-3 0.5q0 0-0.1 0zm-284.3-1.5q0 0-0.1 0l-2.9-0.6c-0.3-0.1-0.5-0.4-0.4-0.6 0-0.3 0.3-0.5 0.6-0.4l2.9 0.6c0.3 0 0.5 0.3 0.4 0.6 0 0.2-0.3 0.4-0.5 0.4zm294.2-0.3c-0.3 0-0.5-0.2-0.5-0.4-0.1-0.3 0.1-0.6 0.4-0.6l2.9-0.6c0.3 0 0.6 0.1 0.6 0.4 0.1 0.3-0.1 0.5-0.4 0.6l-2.9 0.6q-0.1 0-0.1 0zm-304-1.7q0 0-0.1 0l-2.9-0.6c-0.3 0-0.5-0.3-0.4-0.6 0-0.2 0.3-0.4 0.6-0.4l2.9 0.6c0.3 0.1 0.5 0.3 0.4 0.6-0.1 0.2-0.3 0.4-0.5 0.4zm313.8-0.2c-0.2 0-0.4-0.2-0.5-0.4 0-0.3 0.1-0.5 0.4-0.6l3-0.5c0.2-0.1 0.5 0.1 0.5 0.4 0.1 0.2-0.1 0.5-0.4 0.5l-2.9 0.6q-0.1 0-0.1 0zm-323.6-1.7q0 0-0.1 0l-2.9-0.6c-0.3-0.1-0.5-0.4-0.4-0.6 0-0.3 0.3-0.5 0.6-0.4l2.9 0.6c0.3 0 0.4 0.3 0.4 0.6-0.1 0.2-0.3 0.4-0.5 0.4zm333.4-0.2c-0.2 0-0.4-0.1-0.5-0.4 0-0.2 0.2-0.5 0.4-0.5l3-0.6c0.3-0.1 0.5 0.1 0.6 0.4 0 0.3-0.2 0.5-0.4 0.6l-3 0.5q0 0-0.1 0zm-343.2-1.8q-0.1 0-0.1 0l-2.9-0.6c-0.3 0-0.5-0.3-0.4-0.6 0-0.2 0.3-0.4 0.5-0.4l3 0.6c0.3 0.1 0.4 0.3 0.4 0.6-0.1 0.2-0.3 0.4-0.5 0.4zm353 0c-0.2 0-0.4-0.2-0.4-0.4-0.1-0.3 0.1-0.6 0.4-0.6l2.9-0.6c0.3 0 0.5 0.2 0.6 0.4 0 0.3-0.1 0.6-0.4 0.6l-3 0.6q0 0-0.1 0zm9.9-1.9c-0.3 0-0.5-0.1-0.5-0.4-0.1-0.3 0.1-0.5 0.4-0.6l2.9-0.5c0.3-0.1 0.6 0.1 0.6 0.4 0.1 0.2-0.1 0.5-0.4 0.6l-2.9 0.5q-0.1 0-0.1 0zm-372.7 0q-0.1 0-0.1 0l-3-0.6c-0.2-0.1-0.4-0.3-0.4-0.6 0.1-0.3 0.4-0.5 0.6-0.4l3 0.6c0.3 0 0.4 0.3 0.4 0.6-0.1 0.2-0.3 0.4-0.5 0.4zm382.5-1.8c-0.2 0-0.4-0.2-0.5-0.4 0-0.3 0.1-0.6 0.4-0.6l3-0.6c0.2 0 0.5 0.1 0.5 0.4 0.1 0.3-0.1 0.6-0.4 0.6l-2.9 0.6q-0.1 0-0.1 0zm-392.3-0.2q-0.1 0-0.1 0l-3-0.6c-0.2 0-0.4-0.3-0.4-0.6 0.1-0.2 0.4-0.4 0.6-0.4l3 0.6c0.2 0.1 0.4 0.3 0.4 0.6-0.1 0.2-0.3 0.4-0.5 0.4zm402.1-1.7c-0.2 0-0.4-0.2-0.5-0.4 0-0.3 0.2-0.5 0.4-0.6l3-0.5c0.3-0.1 0.5 0.1 0.6 0.4 0 0.2-0.2 0.5-0.4 0.5l-3 0.6q0 0-0.1 0zm-411.9-0.2q-0.1 0-0.1 0l-3-0.6c-0.2-0.1-0.4-0.3-0.4-0.6 0.1-0.3 0.3-0.5 0.6-0.4l3 0.6c0.2 0 0.4 0.3 0.4 0.6-0.1 0.2-0.3 0.4-0.5 0.4zm421.8-1.6c-0.3 0-0.5-0.2-0.5-0.5-0.1-0.2 0.1-0.5 0.4-0.5l2.9-0.6c0.3 0 0.5 0.1 0.6 0.4 0 0.3-0.1 0.5-0.4 0.6l-3 0.5q0 0.1 0 0.1zm-431.6-0.4q-0.1 0-0.1 0l-3-0.6c-0.3 0-0.4-0.3-0.4-0.6 0.1-0.2 0.3-0.4 0.6-0.4l3 0.6c0.2 0.1 0.4 0.3 0.3 0.6 0 0.2-0.2 0.4-0.4 0.4zm441.4-1.5c-0.3 0-0.5-0.2-0.5-0.4-0.1-0.3 0.1-0.5 0.4-0.6l2.9-0.6c0.3 0 0.6 0.2 0.6 0.4 0.1 0.3-0.1 0.6-0.4 0.6l-2.9 0.6q-0.1 0-0.1 0zm-451.2-0.4q-0.1 0-0.1 0l-3-0.6c-0.3-0.1-0.4-0.3-0.4-0.6 0.1-0.3 0.3-0.5 0.6-0.4l2.9 0.6c0.3 0 0.5 0.3 0.4 0.6 0 0.2-0.2 0.4-0.4 0.4zm461-1.5c-0.2 0-0.4-0.1-0.5-0.4 0-0.2 0.1-0.5 0.4-0.6l3-0.5c0.2-0.1 0.5 0.1 0.5 0.4 0.1 0.3-0.1 0.5-0.4 0.6l-2.9 0.5q-0.1 0-0.1 0zm-470.9-0.5q0 0-0.1 0l-2.9-0.6c-0.3 0-0.4-0.3-0.4-0.6 0.1-0.2 0.3-0.4 0.6-0.4l2.9 0.6c0.3 0.1 0.5 0.3 0.4 0.6 0 0.2-0.2 0.4-0.5 0.4zm-9.8-1.9q0 0-0.1 0l-2.9-0.6c-0.3-0.1-0.5-0.3-0.4-0.6 0.1-0.3 0.3-0.5 0.6-0.4l2.9 0.6c0.3 0 0.5 0.3 0.4 0.6 0 0.2-0.2 0.4-0.5 0.4zm-9.8-2q0 0-0.1 0l-2.9-0.6c-0.3 0-0.5-0.3-0.4-0.6 0-0.2 0.3-0.4 0.6-0.4l2.9 0.6c0.3 0.1 0.5 0.3 0.4 0.6 0 0.3-0.2 0.4-0.5 0.4zm494.9-2q0 0 0 0c-0.3 0-0.5-0.2-0.5-0.5v-1.8-1.2c0-0.2 0.2-0.5 0.5-0.5q0 0 0 0c0.3 0 0.5 0.3 0.5 0.5v1.2 1.8c0 0.3-0.2 0.5-0.5 0.5zm-501.5-2.6c-0.3 0-0.5-0.3-0.5-0.5l-0.2-3c0-0.3 0.2-0.5 0.5-0.5 0.3-0.1 0.5 0.2 0.5 0.4l0.2 3c0 0.3-0.2 0.5-0.5 0.6q0 0 0 0zm501.4-7.4c-0.2 0-0.5-0.2-0.5-0.5q0-1.5 0-3c0-0.2 0.2-0.5 0.4-0.5 0.3 0 0.6 0.2 0.6 0.5q0 1.5 0 3c0 0.3-0.2 0.5-0.5 0.5q0 0 0 0zm-501.9-2.6c-0.2 0-0.5-0.2-0.5-0.5l-0.1-3c0-0.3 0.2-0.5 0.5-0.5 0.3 0 0.5 0.2 0.5 0.4l0.1 3c0 0.3-0.2 0.6-0.5 0.6q0 0 0 0zm501.6-7.4c-0.2 0-0.5-0.2-0.5-0.4q0-1.5-0.1-3c0-0.3 0.2-0.5 0.5-0.5 0.2-0.1 0.5 0.2 0.5 0.4q0.1 1.5 0.1 3c0 0.3-0.2 0.5-0.5 0.5q0 0 0 0zm-501.9-2.6c-0.3 0-0.5-0.2-0.5-0.5l-0.1-3c0-0.3 0.2-0.5 0.5-0.5 0.3 0 0.5 0.2 0.5 0.5l0.1 3c0 0.2-0.2 0.5-0.5 0.5q0 0 0 0zm501.4-7.3c-0.3 0-0.5-0.2-0.5-0.5q-0.1-1.5-0.2-3c0-0.3 0.2-0.5 0.5-0.5 0.3 0 0.5 0.2 0.5 0.4q0.1 1.5 0.2 3c0 0.3-0.2 0.5-0.5 0.6q0 0 0 0zm-501.7-2.7c-0.2 0-0.5-0.2-0.5-0.5v-3c0-0.3 0.2-0.5 0.5-0.5 0.2 0 0.5 0.2 0.5 0.5v3c0 0.2-0.2 0.5-0.5 0.5q0 0 0 0zm501-7.3c-0.3 0-0.5-0.2-0.5-0.5q-0.1-1.5-0.2-3c-0.1-0.2 0.1-0.5 0.4-0.5 0.3 0 0.5 0.2 0.6 0.4q0.1 1.5 0.2 3c0 0.3-0.2 0.6-0.5 0.6q0 0 0 0zm-501.1-2.7c-0.3 0-0.5-0.3-0.5-0.5l-0.1-3c0-0.3 0.2-0.5 0.5-0.5 0.3 0 0.5 0.2 0.5 0.5l0.1 3c0 0.2-0.3 0.5-0.5 0.5q0 0 0 0zm500.2-7.3c-0.2 0-0.5-0.2-0.5-0.4q-0.1-1.5-0.3-3c0-0.3 0.2-0.5 0.5-0.6 0.2 0 0.5 0.2 0.5 0.5q0.2 1.5 0.3 3c0 0.2-0.2 0.5-0.4 0.5q-0.1 0-0.1 0zm-500.3-2.7c-0.3 0-0.5-0.3-0.5-0.5v-1.8-1.2c0-0.3 0.2-0.5 0.5-0.5 0.3 0 0.5 0.2 0.5 0.5v1.2 1.8c0 0.2-0.2 0.5-0.5 0.5zm499.3-7.2c-0.3 0-0.5-0.2-0.5-0.5q-0.2-1.5-0.4-3c0-0.2 0.2-0.5 0.4-0.5 0.3-0.1 0.6 0.2 0.6 0.4q0.2 1.5 0.4 3c0 0.3-0.2 0.5-0.5 0.6q0 0 0 0zm-499.3-2.8q0 0 0 0c-0.3 0-0.5-0.3-0.5-0.5q0-1.5 0.1-3c0-0.3 0.2-0.5 0.5-0.5q0 0 0 0c0.2 0 0.5 0.2 0.5 0.5q-0.1 1.5-0.1 3c0 0.2-0.2 0.5-0.5 0.5zm498-7.2c-0.2 0-0.4-0.1-0.5-0.4q-0.2-1.5-0.4-3c0-0.2 0.2-0.5 0.5-0.5 0.3-0.1 0.5 0.1 0.5 0.4q0.2 1.5 0.4 3c0.1 0.2-0.1 0.5-0.4 0.5q0 0-0.1 0zm-497.8-2.8q0 0 0 0c-0.3 0-0.5-0.3-0.5-0.5q0-1.5 0.1-3c0-0.3 0.2-0.5 0.5-0.5 0.2 0 0.5 0.2 0.5 0.5q-0.1 1.5-0.1 3c0 0.3-0.2 0.5-0.5 0.5zm496.5-7.1c-0.3 0-0.5-0.2-0.5-0.4q-0.2-1.5-0.5-3c0-0.2 0.2-0.5 0.5-0.5 0.2-0.1 0.5 0.1 0.5 0.4q0.2 1.5 0.5 3c0 0.2-0.2 0.5-0.5 0.5q0 0 0 0zm-496.2-2.9q0 0 0 0c-0.3 0-0.5-0.3-0.5-0.5q0-1.5 0.1-3c0-0.3 0.2-0.5 0.5-0.5 0.3 0 0.5 0.2 0.5 0.5q-0.1 1.5-0.1 3c0 0.3-0.3 0.5-0.5 0.5zm494.7-7c-0.3 0-0.5-0.1-0.5-0.4q-0.3-1.5-0.5-2.9c-0.1-0.3 0.1-0.6 0.4-0.6 0.3-0.1 0.5 0.1 0.6 0.4q0.2 1.5 0.4 3c0.1 0.2-0.1 0.5-0.4 0.5q0 0 0 0zm-494.3-3q0 0 0 0c-0.3 0-0.5-0.3-0.5-0.6q0.1-1.5 0.2-3c0-0.2 0.2-0.5 0.5-0.4 0.3 0 0.5 0.2 0.5 0.5q-0.1 1.5-0.2 3c0 0.3-0.2 0.5-0.5 0.5zm492.6-6.8c-0.2 0-0.5-0.2-0.5-0.4q-0.3-1.5-0.5-3c-0.1-0.3 0.1-0.5 0.4-0.6 0.3 0 0.5 0.2 0.6 0.4q0.2 1.5 0.5 3c0 0.3-0.1 0.5-0.4 0.6q-0.1 0-0.1 0zm-492-3.2q0 0 0 0c-0.3 0-0.5-0.3-0.5-0.5q0.2-1.6 0.3-3c0-0.3 0.2-0.5 0.5-0.5 0.3 0 0.5 0.3 0.5 0.5q-0.2 1.5-0.3 3c0 0.3-0.2 0.5-0.5 0.5zm490.2-6.7c-0.2 0-0.4-0.1-0.5-0.4q-0.3-1.5-0.6-2.9c0-0.3 0.2-0.6 0.4-0.6 0.3-0.1 0.6 0.1 0.6 0.4q0.3 1.4 0.6 2.9c0 0.3-0.1 0.6-0.4 0.6q-0.1 0-0.1 0zm-489.3-3.3q0 0-0.1 0c-0.2 0-0.4-0.3-0.4-0.5q0.1-1.5 0.3-3c0-0.3 0.3-0.5 0.5-0.5 0.3 0.1 0.5 0.3 0.5 0.6q-0.2 1.5-0.3 3c0 0.2-0.3 0.4-0.5 0.4zm487.4-6.5c-0.3 0-0.5-0.2-0.5-0.4q-0.4-1.5-0.7-2.9c0-0.3 0.2-0.6 0.4-0.6 0.3-0.1 0.6 0.1 0.6 0.4q0.3 1.4 0.6 2.9c0.1 0.3-0.1 0.5-0.3 0.6q-0.1 0-0.1 0zm-486.3-3.4q0 0 0 0c-0.3-0.1-0.5-0.3-0.5-0.6q0.2-1.5 0.4-3c0.1-0.2 0.3-0.4 0.6-0.4 0.3 0.1 0.5 0.3 0.4 0.6q-0.2 1.4-0.4 2.9c0 0.3-0.2 0.5-0.5 0.5zm483-5.3q0 0 0 0-1.5-0.2-3-0.3c-0.3-0.1-0.5-0.3-0.4-0.6 0-0.3 0.2-0.5 0.5-0.4q1.6 0.1 3 0.3c0.3 0 0.5 0.3 0.4 0.6 0 0.2-0.2 0.4-0.5 0.4zm-9.9-1q0 0 0 0-1.5-0.2-3-0.3c-0.3 0-0.5-0.3-0.5-0.5 0-0.3 0.3-0.5 0.6-0.5q1.5 0.1 2.9 0.3c0.3 0 0.5 0.2 0.5 0.5 0 0.3-0.2 0.5-0.5 0.5zm-10-0.9q0 0 0 0l-3-0.2c-0.3 0-0.5-0.3-0.5-0.5 0.1-0.3 0.3-0.5 0.6-0.5l3 0.2c0.2 0.1 0.5 0.3 0.4 0.6 0 0.2-0.2 0.4-0.5 0.4zm-9.9-0.7q-0.1 0-0.1 0l-3-0.2c-0.2 0-0.5-0.2-0.4-0.5 0-0.3 0.2-0.5 0.5-0.5l3 0.2c0.3 0 0.5 0.3 0.5 0.6-0.1 0.2-0.3 0.4-0.5 0.4zm-10-0.6q0 0-0.1 0l-2.9-0.2c-0.3 0-0.5-0.2-0.5-0.5 0-0.3 0.2-0.5 0.5-0.5l3 0.2c0.3 0 0.5 0.3 0.5 0.5 0 0.3-0.3 0.5-0.5 0.5zm-10-0.5q0 0 0 0l-3-0.2c-0.3 0-0.5-0.2-0.5-0.5 0-0.3 0.3-0.5 0.5-0.5l3 0.2c0.3 0 0.5 0.2 0.5 0.5 0 0.3-0.2 0.5-0.5 0.5zm-10-0.5q0 0 0 0l-3-0.1c-0.3 0-0.5-0.3-0.5-0.5 0-0.3 0.2-0.5 0.5-0.5l3 0.1c0.3 0 0.5 0.3 0.5 0.5 0 0.3-0.2 0.5-0.5 0.5zm-10-0.4q0 0 0 0l-3-0.1c-0.3 0-0.5-0.3-0.5-0.5 0-0.3 0.2-0.5 0.5-0.5l3 0.1c0.3 0 0.5 0.2 0.5 0.5 0 0.3-0.2 0.5-0.5 0.5zm-411.7 0q0 0-0.1 0c-0.3-0.1-0.4-0.3-0.4-0.6l0.2-0.9c0.1-0.9 0.8-1.5 1.7-1.5h0.3q0 0 0 0c0.3 0 0.5 0.2 0.5 0.5 0 0.2-0.2 0.5-0.5 0.5h-0.3c-0.4 0-0.7 0.3-0.7 0.6l-0.2 1c0 0.2-0.3 0.4-0.5 0.4zm401.7-0.4q0 0 0 0l-3-0.1c-0.3 0-0.5-0.2-0.5-0.5 0-0.3 0.3-0.5 0.5-0.5l3 0.1c0.3 0 0.5 0.3 0.5 0.5 0 0.3-0.2 0.5-0.5 0.5zm-10-0.3q0 0 0 0l-3-0.1c-0.3 0-0.5-0.2-0.5-0.5 0-0.3 0.3-0.5 0.5-0.5l3 0.1c0.3 0 0.5 0.2 0.5 0.5 0 0.3-0.2 0.5-0.5 0.5zm-10-0.3q0 0 0 0l-3-0.1c-0.3 0-0.5-0.2-0.5-0.5 0-0.3 0.2-0.5 0.5-0.5l3 0.1c0.3 0 0.5 0.2 0.5 0.5 0 0.3-0.2 0.5-0.5 0.5zm-10-0.3q0 0 0 0l-3-0.1c-0.3 0-0.5-0.2-0.5-0.5 0-0.3 0.3-0.4 0.5-0.5l3 0.1c0.3 0 0.5 0.3 0.5 0.5 0 0.3-0.2 0.5-0.5 0.5zm-10-0.2q0 0 0 0l-3-0.1c-0.3 0-0.5-0.2-0.5-0.5 0-0.3 0.3-0.5 0.5-0.5q0 0 0 0l3 0.1c0.3 0 0.5 0.2 0.5 0.5 0 0.3-0.2 0.5-0.5 0.5zm-10-0.3q0 0 0 0h-3c-0.3 0-0.5-0.3-0.5-0.5 0-0.3 0.3-0.5 0.5-0.5h3c0.3 0 0.5 0.3 0.5 0.6 0 0.2-0.2 0.4-0.5 0.4zm-10-0.2q0 0 0 0h-3c-0.3 0-0.5-0.2-0.5-0.5 0-0.3 0.3-0.5 0.5-0.5q0 0 0 0h3c0.3 0 0.5 0.3 0.5 0.6 0 0.2-0.2 0.4-0.5 0.4zm-333-0.1c-0.3 0-0.5-0.2-0.5-0.5 0-0.3 0.2-0.5 0.5-0.5h3c0.2 0 0.5 0.2 0.5 0.4 0 0.3-0.2 0.5-0.5 0.6h-3q0 0 0 0zm323 0q0 0 0 0l-3-0.1c-0.3 0-0.5-0.2-0.5-0.5 0-0.3 0.3-0.5 0.5-0.5q0 0 0 0l3 0.1c0.3 0 0.5 0.2 0.5 0.5 0 0.2-0.2 0.5-0.5 0.5zm-313-0.1c-0.3 0-0.5-0.2-0.5-0.5 0-0.3 0.2-0.5 0.5-0.5l3-0.1q0 0 0 0c0.3 0 0.5 0.3 0.5 0.5 0 0.3-0.2 0.5-0.5 0.5l-3 0.1q0 0 0 0zm303-0.1q0 0 0 0h-3c-0.3-0.1-0.5-0.3-0.5-0.6 0-0.2 0.2-0.4 0.5-0.4h3c0.3 0 0.5 0.2 0.5 0.5 0 0.3-0.2 0.5-0.5 0.5zm-293 0c-0.3 0-0.5-0.3-0.5-0.5 0-0.3 0.2-0.5 0.5-0.5l3-0.1c0.3 0 0.5 0.2 0.5 0.5 0 0.3-0.2 0.5-0.5 0.5l-3 0.1q0 0 0 0zm10-0.1c-0.3 0-0.5-0.3-0.5-0.5 0-0.3 0.2-0.5 0.5-0.5l3-0.1q0 0 0 0c0.3 0 0.5 0.2 0.5 0.5 0 0.3-0.2 0.5-0.5 0.5l-3 0.1q0 0 0 0zm273 0q0 0 0 0l-3-0.1c-0.2 0-0.5-0.2-0.5-0.5 0-0.3 0.3-0.5 0.5-0.5l3 0.1c0.3 0 0.5 0.2 0.5 0.5 0 0.2-0.2 0.5-0.5 0.5zm-263-0.1c-0.3 0-0.5-0.3-0.5-0.5 0-0.3 0.2-0.5 0.5-0.5l3-0.1q0 0 0 0c0.3 0 0.5 0.3 0.5 0.5 0 0.3-0.2 0.5-0.5 0.5l-3 0.1q0 0 0 0zm253-0.1q0 0 0 0h-3c-0.2 0-0.5-0.2-0.5-0.5 0-0.3 0.3-0.5 0.5-0.5q0 0 0 0h3c0.3 0 0.5 0.3 0.5 0.5 0 0.3-0.2 0.5-0.5 0.5zm-243 0c-0.3 0-0.5-0.3-0.5-0.5 0-0.3 0.2-0.5 0.5-0.5l3-0.1c0.2 0.1 0.5 0.3 0.5 0.5 0 0.3-0.2 0.5-0.5 0.5l-3 0.1q0 0 0 0zm233-0.1q0 0 0 0h-3c-0.2 0-0.5-0.3-0.5-0.5 0-0.3 0.3-0.5 0.5-0.5q0 0 0 0h3c0.3 0 0.5 0.2 0.5 0.5 0 0.3-0.2 0.5-0.5 0.5zm-223 0c-0.3 0-0.5-0.2-0.5-0.5 0-0.3 0.2-0.5 0.5-0.5h3q0 0 0 0c0.3 0 0.5 0.2 0.5 0.5 0 0.2-0.2 0.5-0.5 0.5h-3q0 0 0 0zm10-0.1c-0.3 0-0.5-0.2-0.5-0.5 0-0.3 0.2-0.5 0.5-0.5h3q0 0 0 0c0.3 0 0.5 0.2 0.5 0.5 0 0.3-0.2 0.5-0.5 0.5h-3q0 0 0 0zm203 0q0 0 0 0h-3c-0.2 0-0.5-0.3-0.5-0.5 0-0.3 0.3-0.6 0.5-0.5h3c0.3 0 0.5 0.2 0.5 0.5 0 0.3-0.2 0.5-0.5 0.5zm-193-0.1c-0.3 0-0.5-0.2-0.5-0.5 0-0.2 0.2-0.5 0.5-0.5h3q0 0 0 0c0.3 0 0.5 0.2 0.5 0.5 0 0.3-0.2 0.5-0.5 0.5h-3q0 0 0 0zm183 0q0 0 0 0h-3c-0.2 0-0.5-0.2-0.5-0.5 0-0.3 0.3-0.5 0.5-0.5q0 0 0 0h3c0.3 0 0.5 0.2 0.5 0.5 0 0.3-0.2 0.5-0.5 0.5zm-172.9 0c-0.3 0-0.5-0.3-0.5-0.5 0-0.3 0.1-0.5 0.4-0.5l3-0.1c0.3 0 0.5 0.3 0.5 0.5 0 0.3-0.2 0.5-0.5 0.5l-2.9 0.1q0 0 0 0zm162.9-0.1q0 0 0 0h-3c-0.2 0-0.5-0.2-0.5-0.5 0-0.3 0.3-0.5 0.5-0.5q0 0 0 0h3c0.3 0 0.5 0.3 0.5 0.5 0 0.3-0.2 0.5-0.5 0.5zm-153 0c-0.3 0-0.5-0.2-0.5-0.5 0-0.3 0.2-0.5 0.5-0.5h3c0.3 0 0.5 0.2 0.5 0.5 0 0.3-0.2 0.5-0.5 0.5h-3q0 0 0 0zm143 0q0 0 0 0l-3-0.1c-0.2 0-0.5-0.2-0.5-0.5 0-0.2 0.3-0.5 0.5-0.5q0 0 0 0l3 0.1c0.3 0 0.5 0.2 0.5 0.5 0 0.2-0.2 0.5-0.5 0.5zm-133 0c-0.3 0-0.5-0.3-0.5-0.5 0-0.3 0.2-0.5 0.5-0.5l3-0.1q0 0 0 0c0.3 0 0.5 0.3 0.5 0.5 0 0.3-0.2 0.5-0.5 0.5l-3 0.1q0 0 0 0zm123-0.1q0 0 0 0h-2.9c-0.3 0-0.5-0.2-0.5-0.5 0-0.3 0.2-0.5 0.4-0.5q0 0 0 0h3c0.3 0 0.5 0.2 0.5 0.5 0 0.3-0.2 0.5-0.5 0.5zm-112.9 0c-0.3 0-0.6-0.2-0.6-0.5 0-0.3 0.2-0.5 0.5-0.5h3q0 0 0 0c0.3 0 0.5 0.2 0.5 0.5 0 0.3-0.2 0.5-0.5 0.5h-2.9q0 0 0 0zm9.9 0c-0.2 0-0.5-0.3-0.5-0.5 0-0.3 0.3-0.5 0.5-0.5h3c0.3 0 0.5 0.2 0.5 0.5 0 0.2-0.2 0.5-0.5 0.5h-3q0 0 0 0zm93 0h-2.9c-0.3 0-0.6-0.3-0.6-0.5 0-0.3 0.3-0.5 0.5-0.5q0 0 0 0h3c0.3 0 0.5 0.2 0.5 0.5 0 0.2-0.2 0.5-0.5 0.5zm-83-0.1c-0.2 0-0.5-0.2-0.5-0.5 0-0.2 0.3-0.5 0.5-0.5h3c0.3 0 0.5 0.2 0.5 0.5 0 0.3-0.2 0.5-0.5 0.5h-3q0 0 0 0zm73 0q0 0 0 0h-2.9c-0.3 0-0.6-0.2-0.6-0.5 0-0.3 0.3-0.5 0.5-0.5q0 0 0 0h3c0.3 0 0.5 0.3 0.5 0.5 0 0.3-0.2 0.5-0.5 0.5zm-63 0c-0.2 0-0.5-0.2-0.5-0.5 0-0.3 0.3-0.5 0.5-0.5h3q0 0 0 0c0.3 0 0.5 0.2 0.5 0.5 0 0.3-0.2 0.5-0.5 0.5h-3q0 0 0 0zm53 0q0 0 0 0h-3c-0.2 0-0.5-0.2-0.5-0.5 0-0.3 0.3-0.5 0.5-0.5q0 0 0 0h3c0.3 0 0.5 0.2 0.5 0.5 0 0.3-0.2 0.5-0.5 0.5zm-43 0c-0.2 0-0.5-0.2-0.5-0.5 0-0.3 0.3-0.5 0.5-0.5h3q0 0 0 0c0.3 0 0.5 0.2 0.5 0.5 0 0.3-0.2 0.5-0.5 0.5zm33 0h-3c-0.2 0-0.5-0.2-0.5-0.5 0-0.3 0.3-0.5 0.5-0.5h3c0.3 0 0.5 0.2 0.5 0.5 0 0.3-0.2 0.5-0.5 0.5zm-23 0c-0.2 0-0.5-0.2-0.5-0.5 0-0.3 0.3-0.5 0.5-0.5h3c0.3 0 0.5 0.2 0.5 0.5 0 0.3-0.2 0.5-0.5 0.5h-3zm13 0h-3c-0.2 0-0.5-0.2-0.5-0.5 0-0.3 0.3-0.5 0.5-0.5h3c0.3 0 0.5 0.2 0.5 0.5 0 0.3-0.2 0.5-0.5 0.5z"/><path class="o" d="m558.3 481.7h-65.6c-8.5 0-15.8-6.4-16.8-14.9l-7.6-63.1c-1.2-10 6.7-18.9 16.9-18.9h78.7c10 0 17.8 8.5 16.9 18.4l-5.6 63.1c-0.8 8.7-8.1 15.4-16.9 15.4z"/><path class="p" d="m550.2 470.1h-49.9c-6.5 0-12-4.9-12.8-11.4l-5.7-48c-1-7.6 5-14.3 12.8-14.3h59.9c7.6 0 13.5 6.4 12.9 13.9l-4.3 48.1c-0.6 6.6-6.2 11.7-12.9 11.7z"/><path class="q" d="m756.2 118.2c-0.3 4.9 4.4 8.7 9.2 7.2l92-28.5c4.8-1.5 9.8 2 9.8 7 0.7 39.2-29.9 103.5-115.7 100.5-93.4-3.2-128-83.9-82.7-141.3 33.7-42.6 68.9-46.5 84.9-45.7 4.8 0.2 8.5 4.4 8.2 9.2z"/><path class="r" d="m796 7.9c46.6 7.3 61.7 36 66.4 51.4 1.7 5.5-1.1 11.4-6.3 13.7l-79.5 35c-4.2 1.8-8.8-1.8-7.9-6.3l16-85.7c1-5.3 6-8.9 11.3-8.1z"/><path class="d" d="m714.9 187.5q-0.3 0-0.6-0.1c-6-1.9-21.4-7.8-33.9-21.8-13.3-14.9-19.6-34.1-18.8-57.2 0.9-21.7 12.5-42.2 33.6-59.3 15.8-12.8 31.1-19.1 31.8-19.4 1-0.4 2.2 0.1 2.6 1.1 0.4 1-0.1 2.2-1.1 2.6-0.6 0.3-61 25.5-62.9 75.2-0.8 22 5.2 40.2 17.8 54.3 11.9 13.3 26.4 18.9 32.1 20.7 1.1 0.3 1.7 1.5 1.3 2.5-0.2 0.9-1 1.4-1.9 1.4z"/><path class="d" d="m779.5 94.5q-0.3 0-0.6-0.1c-1-0.3-1.7-1.4-1.4-2.5l18-65.4c0.8-2.8 2.6-5.1 5.1-6.5 2.6-1.3 5.5-1.6 8.2-0.8 9.4 3 27 10.7 40.2 29.4 0.7 0.9 0.5 2.2-0.4 2.8-0.9 0.6-2.2 0.4-2.8-0.5-12.6-17.8-29.3-25.1-38.2-27.8-1.7-0.6-3.5-0.4-5 0.5-1.6 0.8-2.7 2.2-3.2 4l-18 65.4c-0.2 0.9-1.1 1.5-1.9 1.5z"/><path class="s" d="m364.3 101.5c0 24.3-19.7 44.1-44.1 44.1-24.4 0-44.1-19.8-44.1-44.1 0-24.4 19.7-44.1 44.1-44.1 24.4 0 44.1 19.7 44.1 44.1z"/><path class="t" d="m362.8 101.5c0 23.5-19 42.6-42.6 42.6-23.6 0-42.6-19.1-42.6-42.6 0-23.6 19-42.7 42.6-42.7 23.6 0 42.6 19.1 42.6 42.7z"/><path class="d" d="m285 84.8q-0.2 0-0.4-0.2c-0.5-0.2-0.7-0.8-0.5-1.3 7-13.7 20.8-22.2 36.1-22.2 2.4 0 4.9 0.2 7.3 0.7 0.5 0.1 0.9 0.6 0.8 1.1-0.1 0.6-0.6 0.9-1.2 0.8-2.2-0.4-4.6-0.6-6.9-0.6-14.6 0-27.7 8.1-34.3 21.1-0.1 0.4-0.5 0.6-0.9 0.6z"/><path class="u" d="m357.2 102.4c0 19.9-16.1 36.1-36.1 36.1-19.9 0-36.1-16.2-36.1-36.1 0-19.9 16.2-36.1 36.1-36.1 20 0 36.1 16.2 36.1 36.1z"/><path class="v" d="m317.6 129.2v-3.9c-4.1-0.2-8.2-1.1-11-2.4-1.1-0.4-1.6-1.6-1.3-2.7l1-3.6c0.4-1.4 1.8-2.1 3.1-1.5 2.9 1.2 6.4 2.1 10.2 2.1 3.9 0 6.9-1.3 6.9-4.1 0-2.4-2.3-3.9-7.8-5.4-7.8-2.1-13.4-5.5-13.4-12.4 0-6.2 4.5-11 12.4-12.2v-4c0-1.2 1-2.2 2.3-2.2h2.3c1.3 0 2.3 1 2.3 2.2v3.6c3.8 0.1 6.5 0.8 8.7 1.5 1.2 0.4 1.8 1.6 1.5 2.8l-1 3.4c-0.3 1.3-1.7 2-3 1.5-2-0.8-4.8-1.5-8.5-1.5-4.7 0-6 1.9-6 3.6 0 2.2 2.8 3.6 8.8 5.5 8.7 2.6 12.3 6.2 12.3 12.7 0 6-4.4 11.3-12.9 12.6v4.4c0 1.3-1.1 2.3-2.3 2.3h-2.3c-1.3 0-2.3-1-2.3-2.3z"/><path class="w" d="m408.4 176.9c0 17.8-14.4 32.3-32.3 32.3-17.8 0-32.3-14.5-32.3-32.3 0-17.9 14.5-32.3 32.3-32.3 17.9 0 32.3 14.4 32.3 32.3z"/><path class="x" d="m407.4 176.9c0 17.2-14 31.2-31.3 31.2-17.2 0-31.2-14-31.2-31.2 0-17.3 14-31.3 31.2-31.3 17.3 0 31.3 14 31.3 31.3z"/><path class="d" d="m350.3 164.9q-0.2 0-0.4-0.1c-0.5-0.2-0.7-0.8-0.4-1.3 5.1-10.2 15.3-16.5 26.6-16.5q2.7 0.1 5.4 0.5c0.5 0.1 0.9 0.7 0.8 1.2-0.1 0.5-0.6 0.9-1.2 0.8q-2.4-0.4-5-0.5c-10.6 0-20.1 5.9-24.9 15.4-0.1 0.3-0.5 0.5-0.9 0.5z"/><path class="u" d="m403.2 177.6c0 14.6-11.8 26.4-26.4 26.4-14.6 0-26.5-11.8-26.5-26.4 0-14.6 11.9-26.5 26.5-26.5 14.6 0 26.4 11.9 26.4 26.5z"/><path class="y" d="m374.2 197.2v-2.8c-3-0.2-6-0.9-8.1-1.8-0.7-0.3-1.1-1.2-0.9-2l0.7-2.6c0.3-1 1.4-1.5 2.3-1.1 2.1 0.8 4.7 1.5 7.5 1.5 2.9 0 5-0.9 5-3 0-1.8-1.7-2.8-5.7-3.9-5.7-1.6-9.8-4.1-9.8-9.1 0-4.6 3.3-8.1 9.1-9v-2.9c0-0.9 0.7-1.6 1.7-1.6h1.7c0.9 0 1.6 0.7 1.6 1.6v2.6c2.8 0.1 4.8 0.6 6.4 1.2 0.9 0.3 1.3 1.1 1.1 2l-0.7 2.5c-0.3 0.9-1.3 1.4-2.2 1.1-1.5-0.6-3.6-1.2-6.3-1.2-3.4 0-4.4 1.5-4.4 2.7 0 1.6 2.1 2.7 6.5 4.1 6.4 1.9 9 4.5 9 9.3 0 4.3-3.2 8.2-9.5 9.2v3.2c0 1-0.7 1.7-1.6 1.7h-1.7c-1 0-1.7-0.7-1.7-1.7z"/><path class="z" d="m253.8 83.8c0 17.8-14.5 32.3-32.3 32.3-17.9 0-32.3-14.5-32.3-32.3 0-17.9 14.4-32.4 32.3-32.4 17.8 0 32.3 14.5 32.3 32.4z"/><path class="A" d="m252.7 83.8c0 17.2-14 31.2-31.2 31.2-17.3 0-31.3-14-31.3-31.2 0-17.3 14-31.3 31.3-31.3 17.2 0 31.2 14 31.2 31.3z"/><path class="d" d="m195.7 71.8q-0.2 0-0.4-0.1c-0.5-0.3-0.7-0.9-0.5-1.4 5.1-10.1 15.4-16.4 26.7-16.4q2.7 0 5.4 0.5c0.5 0.1 0.9 0.6 0.8 1.2-0.1 0.5-0.6 0.9-1.2 0.8q-2.5-0.5-5-0.5c-10.6 0-20.1 5.9-24.9 15.3-0.2 0.4-0.5 0.6-0.9 0.6z"/><path class="u" d="m248.6 84.4c0 14.6-11.8 26.5-26.4 26.5-14.6 0-26.5-11.9-26.5-26.5 0-14.6 11.9-26.4 26.5-26.4 14.6 0 26.4 11.8 26.4 26.4z"/><path class="B" d="m219.6 104.1v-2.9c-3-0.1-6-0.8-8.1-1.7-0.7-0.4-1.1-1.2-0.9-2l0.7-2.7c0.3-1 1.4-1.5 2.3-1.1 2.1 0.9 4.7 1.6 7.4 1.6 2.9 0 5.1-1 5.1-3 0-1.8-1.7-2.9-5.7-4-5.7-1.5-9.8-4-9.8-9.1 0-4.5 3.3-8 9.1-8.9v-2.9c0-0.9 0.7-1.7 1.7-1.7h1.6c1 0 1.7 0.8 1.7 1.7v2.6c2.8 0.1 4.8 0.6 6.4 1.1 0.8 0.3 1.3 1.2 1.1 2l-0.7 2.5c-0.3 1-1.3 1.5-2.2 1.1-1.5-0.5-3.6-1.1-6.3-1.1-3.4 0-4.4 1.4-4.4 2.7 0 1.6 2.1 2.6 6.5 4 6.4 1.9 9 4.6 9 9.3 0 4.4-3.2 8.3-9.5 9.3v3.2c0 0.9-0.7 1.7-1.7 1.7h-1.6c-1 0-1.7-0.8-1.7-1.7z"/><path class="C" d="m422.5 57.7c0 13.5-10.9 24.4-24.4 24.4-13.5 0-24.4-10.9-24.4-24.4 0-13.5 10.9-24.4 24.4-24.4 13.5 0 24.4 10.9 24.4 24.4z"/><path class="D" d="m421.7 57.7c0 13-10.6 23.6-23.6 23.6-13 0-23.6-10.6-23.6-23.6 0-13 10.6-23.6 23.6-23.6 13 0 23.6 10.6 23.6 23.6z"/><path class="d" d="m378.7 48.9q-0.3 0-0.5-0.1c-0.5-0.3-0.7-0.9-0.4-1.3 3.9-7.8 11.7-12.6 20.3-12.6q2.1 0 4.1 0.4c0.6 0.1 0.9 0.6 0.8 1.2-0.1 0.5-0.6 0.9-1.1 0.8q-1.9-0.4-3.8-0.4c-7.9 0-15 4.4-18.6 11.5-0.1 0.3-0.5 0.5-0.8 0.5z"/><path class="u" d="m418.6 58.2c0 11.1-8.9 20-20 20-11 0-19.9-8.9-19.9-20 0-11 8.9-20 19.9-20 11.1 0 20 9 20 20z"/><path class="E" d="m396.7 73.1v-2.2c-2.3-0.1-4.5-0.6-6.1-1.3-0.6-0.3-0.9-0.9-0.7-1.5l0.5-2c0.2-0.8 1-1.2 1.8-0.9 1.5 0.7 3.5 1.2 5.6 1.2 2.2 0 3.8-0.7 3.8-2.2 0-1.4-1.3-2.2-4.3-3-4.3-1.2-7.4-3.1-7.4-6.9 0-3.4 2.5-6.1 6.8-6.8v-2.1c0-0.7 0.6-1.3 1.3-1.3h1.3c0.7 0 1.3 0.6 1.3 1.3v1.9c2 0.1 3.6 0.4 4.8 0.9 0.6 0.2 0.9 0.9 0.8 1.5l-0.5 1.9c-0.2 0.7-1 1.1-1.7 0.8-1.1-0.4-2.7-0.8-4.7-0.8-2.6 0-3.4 1-3.4 2 0 1.2 1.6 2 4.9 3 4.9 1.5 6.9 3.5 6.9 7 0 3.3-2.5 6.3-7.2 7v2.5c0 0.7-0.6 1.2-1.3 1.2h-1.3c-0.7 0-1.2-0.5-1.2-1.2z"/><path class="F" d="m324.5 188.3c0 23.1-18.7 41.8-41.7 41.8-23.1 0-41.8-18.7-41.8-41.8 0-23 18.7-41.7 41.8-41.7 23 0 41.7 18.7 41.7 41.7z"/><path class="G" d="m323.1 188.3c0 22.3-18 40.4-40.3 40.4-22.3 0-40.4-18.1-40.4-40.4 0-22.3 18.1-40.3 40.4-40.3 22.3 0 40.3 18 40.3 40.3z"/><path class="d" d="m249.5 172.6q-0.3 0-0.5-0.2c-0.5-0.2-0.7-0.8-0.4-1.3 6.5-13 19.6-21 34.2-21 2.3 0 4.6 0.2 6.9 0.6 0.5 0.1 0.9 0.6 0.8 1.1-0.1 0.6-0.7 0.9-1.2 0.8q-3.2-0.5-6.5-0.5c-13.8 0-26.2 7.6-32.4 19.9-0.2 0.4-0.6 0.6-0.9 0.6z"/><path class="u" d="m317.8 189.2c0 18.9-15.3 34.2-34.2 34.2-18.8 0-34.1-15.3-34.1-34.2 0-18.9 15.3-34.2 34.1-34.2 18.9 0 34.2 15.3 34.2 34.2z"/><path class="H" d="m280.3 214.6v-3.7c-3.9-0.2-7.7-1.1-10.4-2.3-1-0.4-1.5-1.5-1.2-2.5l0.9-3.5c0.4-1.2 1.7-1.9 3-1.4 2.7 1.1 6 2 9.6 2 3.7 0 6.5-1.2 6.5-3.8 0-2.4-2.1-3.8-7.3-5.1-7.4-2.1-12.8-5.3-12.8-11.8 0-5.9 4.4-10.4 11.8-11.6v-3.7c0-1.2 1-2.2 2.2-2.2h2.2c1.2 0 2.1 1 2.1 2.2v3.3c3.6 0.2 6.2 0.8 8.3 1.5 1.1 0.4 1.6 1.5 1.3 2.6l-0.8 3.2c-0.4 1.3-1.7 1.9-2.9 1.5-1.9-0.7-4.6-1.5-8.1-1.5-4.4 0-5.7 1.8-5.7 3.5 0 2 2.7 3.4 8.4 5.2 8.3 2.4 11.7 5.9 11.7 12 0 5.6-4.2 10.7-12.3 11.9v4.2c0 1.2-1 2.2-2.2 2.2h-2.1c-1.2 0-2.2-1-2.2-2.2z"/><path class="I" d="m600.2 286.3c0-0.1 42.3-74.1 48-81 1-1.2 2.4-1.8 3.9-1.6l11.8 1.4 13.9 30-23.1-13.5c2.3 15.8-27.4 39.3-37.5 47.9-1.1 0.8-1.1 2.4-0.2 3.4l4.1 4.2c-6.7 6.8-14.4 11.1-23.1 13.1z"/><path class="J" d="m618.7 274.8q2.6 0.9 3.5 3.2c0.4 1.1-0.1 2.3-1 3-4.3 3.1-18.4 12.9-24.9 14.9-0.5 0.1-1-0.4-0.9-0.9 0.4-1.5 1.4-4.5 4.9-8.9l-0.3 0.6c-0.4 0.8 0.5 1.6 1.2 1.2 4.4-2.5 13.2-7.8 17.5-13.1z"/><path class="K" d="m616.6 304.4c0.1 0 6.4-15.3 6.5-15.3 5.8-35.4 20-65.7 24.2-73.7 0.7-1.3 2-2.2 3.5-2.4l11.9-1 19.6 26.6-25.3-8.5c5.4 15-18.9 44-27.1 54.4-0.9 1.1-0.6 2.6 0.5 3.4l4.8 3.3c-5.1 8-11.8 13.8-19.9 17.5z"/><path class="L" d="m632.5 289.5q2.7 0.3 4 2.3c0.6 1 0.4 2.4-0.4 3.2-3.5 3.9-15.3 16.4-21.3 19.6-0.5 0.3-1.1-0.1-1-0.7 0-1.5 0.4-4.7 2.9-9.7l-0.2 0.7c-0.2 0.8 0.8 1.5 1.5 0.9 3.8-3.3 11.3-10.3 14.5-16.3z"/><path class="M" d="m718 206.4q10.7 16 11.6 23.2c0.9 7.3-2.9 9.8-14.1 10.7q-33.4 2.8-49.8-7.2c-2.3-14.6-3.9-18.3-23-26.2q24.1 2 29 0.1 4.8-1.9 46.3-0.6z"/><path class="N" d="m685.1 113.6q5.3 2.1 6.5 4.9c0.9 2.3 6.6 2.2 7.5 6.7 0.4 2.3 2.3 4 4.7 4.2 5.8 0.5 15 2.9 17.1 12.8 1.7 7.6-2 10.8-6.1 12.1-2.9 1-4.7 4.1-3.9 7.1 0.8 2.9 0.2 6.3-4.7 9.3q-10.9 6.9-23.7-12.5l-4.9-35.1z"/><path class="O" d="m689.1 204.3q-12.5-11.8-18.6-19.7c-3.3-4.3-4.4-9.8-2.8-15 2.8-9.5 7.7-19.2 8.2-20.7q0.7-2.4 14.7-2.3 27.5 17.9 38.3 48.1l-12.2 3.8q-7.1-12.1-14.2-19.7 12.3 16.2 12.7 22.8z"/><path class="P" d="m665.3 209l9.4-10.2 10.8 2.9q12.6 2 19.9 0 7.2-1.9 7.2-1.9l16.3-5.1 2.5 7.2c0.7 1.9 0 3.9-1.5 5.1-1.5 1-3.1 2.1-4.2 2.5q-2.1 1-49.4 0.3z"/><path class="Q" d="m683.6 128.9l6.8 18.4c-0.7 3.8-10.3 3.9-11.7 1.6q-0.3-0.3-0.3-0.7l-3.1-14.4c-0.2-1.1 0.3-2.3 1.3-2.8l3.8-2c1.4-0.8 2.7-1.6 3.2-0.1z"/><path class="R" d="m684.9 126.1c-1.7 7.4-6.1 10.4-9.3 12-3.2 1.5-7.5 0.1-8.9-8.6q-1.4-8.8 1.9-13.8c4.3-6.3 18 3 16.3 10.4z"/><path class="S" d="m679.4 124.7q-3.1-12-11.8-6.3l-1 2.8q-6.8-3.3-3.4-9.3c3.4-6.1 10.9-8.1 17.8-2.6 6.9 5.4 10.5 9.8 9.1 15.6q-1.4 5.9-5.5 3.1-0.1-4.5-2.1-5.6-1.9-1.1-2.4 2.2z"/><path class="T" d="m681.1 125.1q-1.7-6.2 2-5.8c3.7 0.4 1.2 5.9 0.2 7.9z"/><path class="U" d="m696.3 213q0 0.1-0.1 0.1l-43-0.1c-1.1 0-2-0.9-2-1.9 0-1.1 0.9-2 2-2l43.1 0.1c1 0 1.9 0.9 1.9 1.9 0 1.1-0.8 1.9-1.9 1.9z"/><path class="V" d="m614.4 173.9h35.9c2.7 0 5.1 1.6 6.2 4l16.6 35.1h-44.6c-1.7 0-3.2-1-3.9-2.6l-12.8-32.5c-0.8-1.9 0.6-4 2.6-4z"/><path class="W" d="m639.7 192c0.8 2.4 0.2 4.7-1.3 5.2-1.5 0.5-3.3-1.1-4.1-3.5-0.7-2.4-0.2-4.8 1.3-5.2 1.5-0.5 3.3 1.1 4.1 3.5z"/><path class="X" d="m547.8 98.2c-9.7 23.3-80.4 34-111.9 33.8-24.7-0.1-9.1-22.3-1-19.4 1.4-16.4 21-23.8 24.5-14.7 7.6-40.5 38-25.8 39.4-20 20.1-18.6 34.8-2.5 35.3 10.1q23.4-13 13.7 10.2z"/><path class="Y" d="m641.7 57.6c-6.1 14.6-50.6 21.4-70.5 21.3-15.6-0.1-5.7-14.1-0.6-12.2 0.9-10.4 13.2-15.1 15.5-9.3 4.7-25.6 23.9-16.3 24.8-12.6 12.6-11.7 21.9-1.6 22.2 6.4q14.8-8.3 8.6 6.4z"/><path class="Z" d="m356.1 609.4l-34.2-297.3c-0.3-3 1.8-5.7 4.8-6 3-0.4 5.7 1.8 6 4.8l34.2 297.3c0.3 2.9-1.8 5.6-4.8 6q-0.3 0-0.6 0c-2.7 0-5.1-2-5.4-4.8z"/><path class="a0" d="m172.5 614.1c-2.9-0.7-4.8-3.6-4.1-6.5l66.6-297.3c0.7-2.9 3.6-4.8 6.5-4.1 3 0.6 4.8 3.5 4.2 6.5l-66.7 297.3c-0.6 2.5-2.8 4.2-5.3 4.2q-0.6 0-1.2-0.1z"/><path class="a1" d="m280.8 608.8v-146.7c0-3 2.5-5.5 5.5-5.5 3 0 5.4 2.5 5.4 5.5v146.7c0 3-2.4 5.4-5.4 5.4-3 0-5.5-2.4-5.5-5.4z"/><path class="a2" d="m395.2 278.2l-19.2 241c-0.4 5.1-4.7 9-9.8 8.9l-199.8-4.9c-5.9-0.1-10.2-5.4-9.3-11.1l38.2-240.3c0.8-4.8 5-8.3 9.8-8.2l180.7 4.2c5.5 0.2 9.8 4.9 9.4 10.4z"/><path class="a3" d="m387.8 284.9l-18 227.4c-0.4 5.1-4.7 9-9.9 8.8l-185.6-4.5c-5.8-0.1-10.2-5.4-9.3-11.1l36.1-226.8c0.8-4.8 4.9-8.2 9.8-8.1l167.6 3.9c5.5 0.1 9.8 4.8 9.3 10.4z"/><path class="a4" d="m288 297.7l84.5 4.7c0.8 0 1.5 0.8 1.4 1.6l-0.1 1.4c-0.1 0.8-0.8 1.5-1.6 1.4l-84.4-6.1c-0.8 0-1.5-0.8-1.4-1.6 0.1-0.9 0.8-1.5 1.6-1.4z"/><path class="a5" d="m287.5 304.7l84.2 7.3c0.9 0 1.5 0.8 1.4 1.6v0.6c-0.1 0.8-0.9 1.5-1.7 1.4l-84.3-7.2c-0.8-0.1-1.4-0.8-1.4-1.7l0.1-0.6c0.1-0.8 0.8-1.4 1.7-1.4z"/><path class="a6" d="m312.4 314.5l58.7 4.1c0.9 0 1.5 0.8 1.4 1.6l-0.1 1.2c0 0.9-0.8 1.5-1.6 1.4l-58.7-5c-0.9-0.1-1.5-0.8-1.4-1.7v-0.2c0.1-0.9 0.8-1.5 1.7-1.4z"/><path class="a7" d="m349.9 369.7c-0.4 0-0.8-0.2-1.1-0.5l-25.7-24.9-29 17.6c-0.7 0.4-1.6 0.2-2-0.5l-34.1-49c-6.3 4.6-34.9 25.5-38.8 28.4-0.7 0.5-1.6 0.3-2.1-0.4-0.5-0.6-0.3-1.6 0.3-2.1q4.5-3.2 40.1-29.3c0.3-0.2 0.7-0.3 1.1-0.2 0.4 0 0.8 0.3 1 0.6l34.2 49.2 28.8-17.5c0.6-0.3 1.3-0.2 1.8 0.2l25.6 24.9 15.7-11.4c0.7-0.5 1.6-0.4 2.1 0.3 0.5 0.7 0.4 1.6-0.3 2.1l-16.7 12.2q-0.4 0.3-0.9 0.3z"/><path class="a8" d="m252.6 383.3q0 0-0.1 0c-0.5-0.1-0.9-0.6-0.9-1.1l0.3-3c0-0.5 0.5-1 1.1-0.9 0.5 0 0.9 0.5 0.9 1.1l-0.3 3c0 0.5-0.5 0.9-1 0.9zm0.9-10q-0.1 0-0.1 0c-0.6 0-1-0.5-0.9-1.1l0.3-3c0-0.5 0.5-0.9 1-0.9 0.6 0.1 1 0.6 0.9 1.1l-0.2 3c-0.1 0.5-0.5 0.9-1 0.9zm0.9-9.9q-0.1 0-0.1 0c-0.6-0.1-1-0.6-0.9-1.1l0.2-3c0.1-0.6 0.6-1 1.1-0.9 0.6 0 1 0.5 0.9 1.1l-0.2 2.9c-0.1 0.6-0.5 1-1 1zm0.8-10q0 0 0 0c-0.6-0.1-1-0.5-1-1.1l0.3-3c0.1-0.5 0.5-0.9 1.1-0.9 0.5 0.1 1 0.5 0.9 1.1l-0.3 3c0 0.5-0.4 0.9-1 0.9zm0.9-10q0 0-0.1 0c-0.5 0-0.9-0.5-0.9-1l0.3-3c0-0.6 0.5-1 1.1-0.9 0.5 0 0.9 0.5 0.9 1l-0.3 3c0 0.5-0.5 0.9-1 0.9zm0.9-9.9q0 0-0.1 0c-0.5-0.1-0.9-0.6-0.9-1.1l0.3-3c0-0.6 0.5-1 1.1-0.9 0.5 0 0.9 0.5 0.9 1.1l-0.3 3c0 0.5-0.5 0.9-1 0.9zm0.9-10q-0.1 0-0.1 0c-0.6 0-1-0.5-0.9-1.1l0.2-3c0.1-0.5 0.6-0.9 1.1-0.9 0.6 0.1 1 0.6 0.9 1.1l-0.2 3c-0.1 0.5-0.5 0.9-1 0.9z"/><path class="a9" d="m291.1 387.1q-0.1 0-0.1 0c-0.6-0.1-1-0.6-0.9-1.1l0.2-3c0.1-0.6 0.6-1 1.1-0.9 0.6 0 1 0.5 0.9 1.1l-0.2 2.9c-0.1 0.6-0.5 1-1 1zm0.9-10q-0.1 0-0.1 0c-0.6-0.1-1-0.5-0.9-1.1l0.2-3c0.1-0.5 0.6-0.9 1.1-0.9 0.6 0.1 1 0.5 0.9 1.1l-0.3 3c0 0.5-0.4 0.9-0.9 0.9zm0.8-10q0 0-0.1 0c-0.5 0-0.9-0.5-0.9-1.1l0.3-2.9c0-0.6 0.5-1 1.1-0.9 0.5 0 0.9 0.5 0.9 1l-0.3 3c0 0.5-0.5 0.9-1 0.9z"/><path class="aa" d="m320.1 390.8q0 0 0 0c-0.6 0-1-0.5-1-1l0.2-3c0-0.6 0.5-1 1.1-1 0.5 0.1 0.9 0.6 0.9 1.1l-0.2 3c0 0.5-0.4 0.9-1 0.9zm0.6-9.9q0 0-0.1 0c-0.5-0.1-0.9-0.5-0.9-1.1l0.2-3c0-0.5 0.5-1 1-0.9 0.6 0 1 0.5 1 1l-0.2 3c0 0.5-0.5 1-1 1zm0.6-10q-0.1 0-0.1 0c-0.5-0.1-1-0.5-0.9-1.1l0.1-3c0.1-0.5 0.6-0.9 1.1-0.9 0.6 0 1 0.5 0.9 1l-0.1 3c-0.1 0.6-0.5 1-1 1zm0.5-10q0 0 0 0c-0.6 0-1-0.5-1-1.1l0.2-3c0-0.5 0.5-0.9 1.1-0.9 0.5 0 0.9 0.5 0.9 1.1l-0.2 2.9c0 0.6-0.4 1-1 1zm0.6-10q0 0 0 0c-0.6 0-1-0.5-1-1l0.2-3c0-0.6 0.5-1 1-1 0.6 0 1 0.5 1 1.1l-0.2 3c0 0.5-0.5 0.9-1 0.9z"/><path class="ab" d="m348.1 393.9q-0.1 0-0.1 0c-0.6 0-1-0.5-0.9-1.1l0.2-2.9c0.1-0.6 0.6-1 1.1-1 0.6 0.1 1 0.6 0.9 1.1l-0.2 3c-0.1 0.5-0.5 0.9-1 0.9zm0.9-9.9q-0.1 0-0.1 0c-0.6-0.1-1-0.6-0.9-1.1l0.2-3c0.1-0.6 0.6-1 1.1-0.9 0.6 0 1 0.5 0.9 1.1l-0.3 3c0 0.5-0.4 0.9-0.9 0.9zm0.8-10q0 0-0.1 0c-0.5 0-0.9-0.5-0.9-1.1l0.3-3c0-0.5 0.5-0.9 1.1-0.9 0.5 0.1 0.9 0.6 0.9 1.1l-0.3 3c0 0.5-0.5 0.9-1 0.9z"/><path class="ac" d="m210.6 390.5q0 0-0.1 0c-0.8 0-1.4-0.8-1.4-1.6l9.1-90.2c0-0.8 0.8-1.4 1.6-1.3 0.8 0.1 1.4 0.8 1.3 1.6l-9 90.2c0 0.8-0.7 1.3-1.5 1.3z"/><path class="ad" d="m214.4 300l5.6-4.5 4.5 5.5-0.4 4.3-4.5-5.5-5.6 4.5z"/><path class="ae" d="m365.7 399.8q-0.1 0-0.2 0l-160.6-14.2c-0.8 0-1.4-0.8-1.3-1.6 0.1-0.8 0.8-1.4 1.6-1.3l160.6 14.1c0.8 0.1 1.4 0.8 1.3 1.7 0 0.7-0.7 1.3-1.4 1.3z"/><path class="af" d="m359.3 402.9l5.5-4.6-4.7-5.6 4.4 0.4 4.6 5.5-5.5 4.7z"/><path class="ag" d="m211.9 613.4q0-0.1 0-0.2c-0.4-2.2-0.8-7 1.8-14.9l4.4-0.3q11.2 5.6 13.5 14.5 0 0.2 0 0.4c-8.5 1-16 0.8-19.7 0.5z"/><path class="ah" d="m231.6 612.9c0 0.8-0.6 1.6-1.3 1.7-3.5 0.4-11.8 1.3-17 0.2-0.7-0.1-1.2-0.7-1.4-1.4 3.7 0.3 11.2 0.5 19.7-0.5z"/><path class="ai" d="m276.6 324.8l29.2-10.6 2.2 4.7-28 10.6q-4-0.4-3.4-4.7z"/><path class="aj" d="m312.8 313q0.1 1 0.5 2.1l-5.3 3.8q-3.1-2.1-2.2-4.7z"/><path class="ak" d="m317.3 312.3l-4 2.8q-0.4-1.1-0.5-2.1z"/><path class="al" d="m211.4 473.8l-6.9 8.4-2.2-4.9c-7.6-5.1-13.3-10.4-17.6-15.6 2.9-1.6 6.9-4.1 9.7-7q4.5 12.9 17 19.1z"/><path class="am" d="m218.1 591.7l1.3 8.1c0.2 1-0.5 2-1.4 2.1-1.1 0.2-2.2 0.2-3 0.1-0.6-0.1-1.1-0.6-1.2-1.2l-1.9-9.1z"/><path class="an" d="m270.9 612.6c0.4 0.7-0.1 1.7-1 1.7l-26.9 0.2c-0.5 0-0.9-0.4-0.9-1q0-0.7 0-1.5c1.3 0.6 3.8 1.1 8.7 1.3 7.6 0.2 16.6-0.5 20.1-0.7z"/><path class="ao" d="m250.8 613.3c-4.9-0.2-7.4-0.7-8.7-1.3q0-8.2 2.6-12.6l5.7 0.2c12 2.8 18 9.4 20.4 12.8q0.1 0 0.1 0.2c-3.5 0.2-12.5 0.9-20.1 0.7z"/><path class="ap" d="m251.1 589.3v10.2c0 0.8-0.6 1.5-1.3 1.7-1.4 0.3-3 0.2-4 0.1-0.5-0.1-1-0.6-1-1.2-0.3-2.5-1.1-9-1.2-9.4z"/><path class="aq" d="m239 472.1q13.9 52.6 13.6 118.7c0 1.2-0.8 2.3-2 2.5-1.8 0.4-4.3 0.8-6.4 0.8-1.2-0.1-2.1-0.9-2.3-2-1.9-11.4-13.1-75.5-19.4-85.9q-4.2 57.1-2.9 86.7c0.1 0.7-0.5 1.4-1.2 1.5-1.1 0.1-2.9 0.2-5.1 0-0.9-0.1-1.6-0.8-1.7-1.6-1.4-9.7-9.4-67-9-108.2q0-2.4 6.1-12.5z"/><path class="ar" d="m297 366.5c-4.1 14.4-14.1 30.4-37 40.8-1.3 0.5-2.3 1.6-2.9 2.9-4 8.8-19.2 44.1-16.2 65.5 0.1 1.1-0.6 2.1-1.7 2.3-6.1 0.9-24 3.1-33.4-0.6-0.5-0.2-0.9-0.8-0.9-1.3 0.1-4.3-0.3-23-7.4-45.5q-0.4-1.3-0.7-2.5c-5.1 10.8-4.9 19.6-2.4 26.6-2.8 2.9-6.8 5.4-9.7 7-22.1-27.4-3.3-54.6 5.3-64.6 2.2-2.5 5.2-4.1 8.4-4.5 11-1.4 38.2-4.9 53.3-7.8 16.4-3.1 26.5-14.6 32.6-25.9 3.7 0.9 9.2 2.9 12.7 7.6z"/><path class="as" d="m284.3 358.9q6.7-12.6 8.5-24.9h5.2q3.9 15.1-1 32.5c-3.5-4.7-9-6.7-12.7-7.6z"/><path class="at" d="m294.7 336.8q-8-10.4-5.4-15.7 2.6-5.4 11.4-4.9l1.3 4.2c0.3 1.1 0.3 2.3-0.2 3.4l-4.8 13z"/><path class="au" d="m225.3 371.4l5.3 16.7q-7.5 5.3-17.8 2.2l1.8-18.3z"/><path class="av" d="m226.6 351q0.2 0.2 10.5 20.4l-11.7 5.6-12.5-17.7q9.5-12.2 13.7-8.3z"/><path class="aw" d="m218 359.8c-0.2 0.6-0.1 1.2 0.2 1.7l5.8 9.6q0.1 0.2 0.3 0.4c0.7 0.7 3 2.5 4.9 0 1.5-2.2 3-4.2 4.5-5 1-0.4 2.1-0.1 2.5 0.9 1 1.9 2.8 5.7 4 9.4 0.3 0.9-0.2 1.9-1.1 2.2-2.3 1-7 2.7-11.1 3.3-0.7 0.1-1.3-0.2-1.7-0.8-1.8-2.4-6.8-9.2-8.5-10.9-1.6-1.6-4.5-1-5.9-0.6-0.5 0.1-1 0.1-1.4-0.2-1.4-0.8-3.7-2.8-1.6-6.2 0.5-0.9 0.3-2-0.6-2.5-1.4-1-3.1-2.9-1.5-5.8 1.5-3.1 4.3-3.3 6.2-3.1 0.9 0.1 1.7-0.3 2.1-1.1 0.1-0.4 0.4-0.7 0.9-0.8 1-0.2 1.7-1.1 1.5-2.1-0.4-1.7-0.1-3.9 2.6-5.4 5-2.8 9.4 1.7 10.5 5.5 1.1 3.8-4.5 6.5-8 6.9-2.6 0.3-4 3.2-4.6 4.6z"/><path class="ax" d="m213.3 374.1c-3.5-3.2-1.3-6 1.6-6.2q2.8-0.3 5 6.2-2.2 4-6.6 0z"/><path class="ay" d="m195.9 426.4c-3.8-10.3-2.4-22.7-2.4-22.9l1.1 0.2c-0.1 0.1-1.4 12.3 2.3 22.3z"/><path class="az" d="m222 504.9c-0.3 0-0.5-0.2-0.5-0.4-1.2-4.4-9.8-9.3-9.9-9.3-0.2-0.2-0.3-0.5-0.2-0.7 0.2-0.3 0.5-0.4 0.8-0.2 0.3 0.2 9 5.1 10.3 9.9 0.1 0.3-0.1 0.6-0.4 0.7q-0.1 0-0.1 0z"/><path class="d" d="m151.9 403.9l-1.4-2.7c-0.2-0.3-0.1-0.7 0.3-0.9 0.3-0.2 0.7-0.1 0.9 0.3l1.4 2.6v0.1c0.2 0.3 0 0.7-0.3 0.9-0.3 0.1-0.7 0-0.9-0.3z"/><path class="d" d="m147.7 394.7l-1-2.9c-0.1-0.3 0.1-0.7 0.5-0.8 0.3-0.2 0.7 0 0.8 0.4h0.1l0.9 2.8v0.1c0.1 0.3-0.1 0.7-0.5 0.8-0.3 0.2-0.7 0-0.8-0.4z"/><path class="d" d="m145.2 384.9q-0.2-1.5-0.2-3.1c-0.1-0.3 0.2-0.7 0.6-0.7 0.4 0 0.7 0.3 0.7 0.7q0.1 1.4 0.3 2.9c0.1 0.4-0.2 0.7-0.6 0.8-0.4 0-0.7-0.2-0.8-0.6z"/><path class="d" d="m145.1 374.7q0.2-1.5 0.5-3c0.1-0.4 0.5-0.6 0.8-0.5 0.4 0 0.7 0.4 0.6 0.8q-0.3 1.4-0.5 2.9c0 0.4-0.4 0.7-0.7 0.6-0.4 0-0.7-0.4-0.7-0.8z"/><path class="d" d="m147.7 364.9q0.5-1.4 1.2-2.8c0.2-0.3 0.6-0.5 0.9-0.3 0.4 0.1 0.5 0.6 0.4 0.9h-0.1q-0.6 1.3-1.1 2.7c-0.2 0.4-0.6 0.5-1 0.4-0.3-0.1-0.5-0.5-0.3-0.9z"/><path class="d" d="m152.5 356l1.8-2.5c0.2-0.3 0.7-0.3 1-0.1 0.3 0.2 0.4 0.7 0.1 1l-1.7 2.4h-0.1c-0.2 0.3-0.7 0.4-1 0.2-0.3-0.3-0.3-0.7-0.1-1z"/><path class="d" d="m159.1 348.3l2.2-2.1c0.3-0.3 0.7-0.2 1 0.1 0.3 0.2 0.2 0.7 0 1h-0.1l-2.1 2h-0.1c-0.3 0.3-0.7 0.3-1 0-0.2-0.3-0.2-0.7 0.1-1z"/><path class="d" d="m166.8 341.8l2.5-1.7c0.3-0.3 0.8-0.2 1 0.1 0.2 0.4 0.1 0.8-0.2 1.1l-2.5 1.7c-0.3 0.2-0.8 0.1-1-0.2-0.2-0.3-0.1-0.8 0.2-1z"/><path class="d" d="m175.3 336.4l2.7-1.5c0.3-0.1 0.8 0 0.9 0.3 0.2 0.4 0.1 0.8-0.3 1l-2.6 1.5c-0.4 0.2-0.8 0-1-0.3-0.2-0.4-0.1-0.8 0.3-1z"/><path class="d" d="m184.3 331.9l2.8-1.2c0.4-0.1 0.8 0 0.9 0.4 0.2 0.4 0 0.8-0.3 1h-0.1l-2.7 1.1c-0.4 0.2-0.8 0-1-0.3-0.1-0.4 0-0.8 0.4-1z"/><path class="d" d="m193.7 328.2l2.8-0.9c0.4-0.2 0.8 0 1 0.4 0.1 0.4-0.1 0.8-0.5 1l-2.8 0.9h-0.1c-0.3 0.2-0.8-0.1-0.9-0.4-0.1-0.4 0.1-0.8 0.5-1z"/><path class="d" d="m203.3 325.3l2.9-0.8c0.4-0.1 0.8 0.1 0.9 0.5 0.1 0.4-0.1 0.9-0.5 1l-2.9 0.7h-0.1c-0.4 0.1-0.8-0.1-0.9-0.5-0.1-0.4 0.2-0.8 0.6-0.9z"/><path class="d" d="m213 323l3-0.6c0.4-0.1 0.8 0.2 0.9 0.6 0.1 0.4-0.2 0.8-0.6 0.9l-3 0.5c-0.4 0.1-0.8-0.2-0.8-0.6-0.1-0.4 0.1-0.8 0.5-0.8z"/><path class="d" d="m222.9 321.2l3-0.4c0.4 0 0.8 0.3 0.9 0.7 0 0.4-0.3 0.8-0.7 0.8l-2.9 0.4h-0.1c-0.4 0.1-0.8-0.2-0.8-0.6-0.1-0.4 0.2-0.8 0.6-0.9z"/><path class="d" d="m232.9 320.1l3-0.3c0.4 0 0.8 0.3 0.8 0.7 0.1 0.4-0.2 0.8-0.7 0.8l-3 0.3c-0.4 0-0.8-0.3-0.8-0.7 0-0.4 0.3-0.8 0.7-0.8z"/><path class="d" d="m242.9 319.4l3-0.1c0.5 0 0.8 0.3 0.8 0.8 0 0.4-0.3 0.7-0.7 0.8h-3c-0.5 0.1-0.8-0.3-0.8-0.7 0-0.4 0.3-0.8 0.7-0.8z"/><path class="d" d="m253 319.3h3c0.4 0 0.7 0.4 0.7 0.8 0 0.4-0.3 0.8-0.8 0.8l-3-0.1c-0.4 0-0.7-0.4-0.7-0.8 0-0.4 0.3-0.8 0.8-0.7z"/><path class="d" d="m263 319.6l3 0.2c0.4 0 0.8 0.4 0.7 0.8 0 0.5-0.4 0.8-0.8 0.8l-3-0.2c-0.4-0.1-0.8-0.4-0.7-0.9 0-0.4 0.4-0.7 0.8-0.7z"/><path class="d" d="m273 320.4l3 0.3c0.4 0.1 0.7 0.5 0.7 0.9-0.1 0.4-0.4 0.7-0.9 0.7l-3-0.3c-0.4-0.1-0.7-0.4-0.7-0.9 0.1-0.4 0.5-0.7 0.9-0.7z"/><path class="d" d="m282.9 321.5l3 0.4c0.5 0.1 0.8 0.5 0.7 0.9 0 0.5-0.4 0.8-0.9 0.7l-3-0.4c-0.4 0-0.7-0.4-0.6-0.9 0-0.4 0.4-0.7 0.8-0.7z"/><path class="d" d="m292.9 322.9l2.9 0.5c0.5 0.1 0.8 0.5 0.7 0.9-0.1 0.4-0.5 0.7-0.9 0.7l-3-0.5c-0.4-0.1-0.7-0.5-0.6-0.9 0-0.4 0.4-0.7 0.9-0.7z"/><path class="d" d="m302.8 324.6l2.9 0.5c0.5 0.1 0.7 0.5 0.7 0.9-0.1 0.5-0.5 0.8-1 0.7l-2.9-0.6c-0.5 0-0.8-0.5-0.7-0.9 0.1-0.4 0.5-0.7 1-0.6z"/><path class="d" d="m312.6 326.4l2.9 0.6c0.5 0.1 0.8 0.6 0.7 1-0.1 0.4-0.5 0.7-1 0.6l-2.9-0.6c-0.5-0.1-0.7-0.5-0.7-0.9 0.1-0.5 0.6-0.8 1-0.7z"/><path class="d" d="m322.4 328.5l2.9 0.7c0.5 0.1 0.7 0.5 0.6 1-0.1 0.4-0.5 0.7-0.9 0.6l-3-0.7c-0.4-0.1-0.7-0.5-0.6-1 0.1-0.4 0.6-0.7 1-0.6z"/><path class="d" d="m332.1 330.8l3 0.8c0.4 0.1 0.7 0.5 0.6 1-0.2 0.4-0.6 0.7-1 0.6v-0.1l-2.9-0.7h-0.1c-0.4-0.1-0.7-0.5-0.5-1 0.1-0.4 0.5-0.7 0.9-0.6z"/><path class="d" d="m341.8 333.3l2.9 0.8c0.5 0.1 0.7 0.6 0.6 1-0.1 0.5-0.5 0.7-1 0.6l-2.9-0.8c-0.4-0.1-0.7-0.5-0.6-1 0.1-0.4 0.6-0.7 1-0.6z"/><path class="d" d="m351.5 336l2.9 0.9c0.4 0.1 0.7 0.6 0.5 1-0.1 0.5-0.6 0.7-1 0.6l-2.9-0.9c-0.4-0.1-0.7-0.6-0.5-1 0.1-0.4 0.6-0.7 1-0.6z"/><path class="d" d="m361.1 338.9l2.8 0.9c0.5 0.2 0.7 0.6 0.6 1.1-0.1 0.4-0.6 0.6-1 0.5h-0.1l-2.8-0.9c-0.5-0.1-0.7-0.6-0.6-1 0.2-0.5 0.6-0.7 1.1-0.6z"/><path class="d" d="m370.6 342l2.9 0.9c0.4 0.2 0.7 0.6 0.5 1.1-0.1 0.4-0.6 0.7-1.1 0.5l-2.8-0.9c-0.4-0.2-0.7-0.7-0.5-1.1 0.1-0.4 0.6-0.7 1-0.5z"/><path class="d" d="m380.1 345.2l2.8 1c0.5 0.1 0.7 0.6 0.6 1-0.2 0.5-0.7 0.7-1.1 0.6l-2.8-1c-0.5-0.2-0.7-0.7-0.6-1.1 0.2-0.5 0.7-0.7 1.1-0.5z"/><path class="d" d="m389.5 348.5l2.9 1c0.4 0.2 0.6 0.7 0.5 1.1-0.2 0.5-0.7 0.7-1.1 0.5l-2.8-1c-0.5-0.1-0.7-0.6-0.5-1.1 0.1-0.4 0.6-0.6 1-0.5z"/><path class="d" d="m398.9 352l2.8 1.1c0.5 0.1 0.7 0.6 0.5 1.1-0.1 0.4-0.6 0.6-1.1 0.5l-2.8-1.1c-0.4-0.2-0.6-0.7-0.5-1.1 0.2-0.4 0.7-0.7 1.1-0.5z"/><path class="d" d="m408.3 355.6l2.8 1.1c0.4 0.2 0.6 0.7 0.5 1.1-0.2 0.5-0.7 0.7-1.2 0.5l-2.8-1.1c-0.4-0.2-0.6-0.7-0.4-1.1 0.1-0.5 0.6-0.7 1.1-0.5z"/><path class="d" d="m417.6 359.3l2.8 1.1c0.4 0.2 0.6 0.7 0.4 1.2-0.2 0.4-0.7 0.6-1.1 0.4l-2.8-1.1c-0.4-0.2-0.6-0.7-0.5-1.1 0.2-0.5 0.7-0.7 1.2-0.5z"/><path class="d" d="m426.8 363.1l2.8 1.2c0.4 0.2 0.6 0.7 0.5 1.1-0.2 0.5-0.7 0.7-1.2 0.5l-2.7-1.2c-0.5-0.2-0.7-0.7-0.5-1.1 0.2-0.5 0.7-0.7 1.1-0.5z"/><path class="d" d="m436 367l2.8 1.2c0.4 0.2 0.7 0.7 0.5 1.1-0.2 0.5-0.7 0.7-1.2 0.5l-2.7-1.2c-0.5-0.2-0.7-0.7-0.5-1.1 0.2-0.5 0.7-0.7 1.1-0.5z"/><path class="d" d="m445.2 371l2.8 1.2c0.4 0.2 0.6 0.7 0.4 1.1-0.2 0.5-0.7 0.7-1.1 0.5l-2.8-1.2c-0.4-0.2-0.6-0.7-0.4-1.2 0.2-0.4 0.7-0.6 1.1-0.4z"/><path class="d" d="m454.4 375l2.7 1.2c0.5 0.2 0.7 0.8 0.5 1.2-0.2 0.5-0.7 0.7-1.2 0.5l-2.7-1.3c-0.5-0.2-0.7-0.7-0.5-1.1 0.2-0.5 0.7-0.7 1.2-0.5z"/><path class="d" d="m463.5 379.1l2.7 1.2c0.5 0.2 0.7 0.8 0.5 1.2-0.2 0.5-0.7 0.7-1.2 0.5l-2.7-1.3c-0.5-0.2-0.7-0.7-0.5-1.1 0.2-0.5 0.8-0.7 1.2-0.5z"/><path class="d" d="m472.6 383.2l2.8 1.3c0.4 0.2 0.6 0.7 0.4 1.2-0.2 0.4-0.7 0.6-1.2 0.4l-2.7-1.2c-0.5-0.2-0.7-0.8-0.5-1.2 0.2-0.5 0.8-0.7 1.2-0.5z"/><path class="d" d="m481.7 387.4l2.7 1.3c0.5 0.2 0.7 0.7 0.5 1.2-0.2 0.4-0.8 0.6-1.2 0.4l-2.7-1.2c-0.5-0.3-0.7-0.8-0.5-1.2 0.2-0.5 0.8-0.7 1.2-0.5z"/><path class="d" d="m490.8 391.6l2.7 1.3c0.5 0.2 0.7 0.7 0.5 1.2-0.2 0.4-0.8 0.6-1.2 0.4l-2.8-1.2c-0.4-0.3-0.6-0.8-0.4-1.3 0.2-0.4 0.7-0.6 1.2-0.4z"/><path class="d" d="m499.9 395.8l2.7 1.3c0.5 0.2 0.7 0.7 0.4 1.2-0.2 0.4-0.7 0.6-1.2 0.4l-2.7-1.2c-0.5-0.3-0.7-0.8-0.4-1.3 0.2-0.4 0.7-0.6 1.2-0.4z"/><path class="d" d="m508.9 400l2.8 1.2c0.4 0.3 0.6 0.8 0.4 1.3-0.2 0.4-0.7 0.6-1.2 0.4l-2.7-1.2c-0.5-0.3-0.7-0.8-0.5-1.3 0.2-0.4 0.8-0.6 1.2-0.4z"/><path class="d" d="m518 404.2l2.8 1.2c0.4 0.2 0.6 0.8 0.4 1.2-0.2 0.5-0.7 0.7-1.2 0.5l-2.7-1.3c-0.5-0.2-0.7-0.7-0.5-1.2 0.2-0.4 0.8-0.6 1.2-0.4z"/><path class="d" d="m527.1 408.3l2.8 1.2c0.4 0.3 0.6 0.8 0.4 1.3-0.2 0.4-0.7 0.6-1.2 0.4l-2.7-1.2c-0.5-0.2-0.7-0.8-0.5-1.2 0.2-0.5 0.8-0.7 1.2-0.5z"/><path class="d" d="m536.2 412.4l2.8 1.2c0.5 0.2 0.7 0.8 0.5 1.3-0.3 0.4-0.8 0.6-1.3 0.4l-2.7-1.2c-0.5-0.2-0.7-0.8-0.5-1.2 0.2-0.5 0.8-0.7 1.2-0.5z"/><path class="d" d="m545.4 416.5l2.7 1.2c0.5 0.2 0.7 0.7 0.5 1.2-0.2 0.5-0.8 0.7-1.2 0.5l-2.8-1.2c-0.5-0.2-0.7-0.8-0.5-1.3 0.3-0.4 0.8-0.6 1.3-0.4z"/><path class="d" d="m554.5 420.5l2.8 1.1c0.5 0.2 0.7 0.8 0.5 1.3-0.2 0.5-0.8 0.7-1.2 0.5h-0.1l-2.7-1.2c-0.5-0.2-0.7-0.8-0.5-1.3 0.2-0.4 0.8-0.7 1.2-0.4z"/><path class="d" d="m563.7 424.4l2.8 1.1c0.5 0.2 0.7 0.8 0.5 1.3-0.2 0.5-0.8 0.7-1.2 0.5l-2.8-1.2c-0.5-0.2-0.7-0.7-0.5-1.2 0.2-0.5 0.7-0.7 1.2-0.5z"/><path class="d" d="m573 428.2l2.7 1.1c0.5 0.2 0.8 0.8 0.6 1.3-0.2 0.5-0.8 0.7-1.3 0.5l-2.8-1.1c-0.5-0.2-0.7-0.8-0.5-1.3 0.2-0.5 0.8-0.7 1.3-0.5z"/><path class="d" d="m582.2 431.9l2.8 1.1c0.5 0.2 0.7 0.8 0.6 1.3-0.2 0.5-0.8 0.7-1.3 0.5l-2.8-1.1c-0.5-0.2-0.7-0.7-0.5-1.2 0.2-0.5 0.7-0.8 1.2-0.6z"/><path class="d" d="m591.5 435.6l2.8 1c0.5 0.2 0.8 0.8 0.6 1.3-0.2 0.5-0.8 0.7-1.3 0.5l-2.8-1c-0.5-0.2-0.7-0.8-0.5-1.3 0.2-0.5 0.7-0.7 1.2-0.5z"/><path class="d" d="m600.9 439.1l2.8 1c0.5 0.2 0.8 0.7 0.6 1.2-0.2 0.5-0.8 0.8-1.3 0.6l-2.8-1c-0.5-0.2-0.8-0.7-0.6-1.3 0.2-0.5 0.8-0.7 1.3-0.5z"/><path class="d" d="m610.3 442.5l2.8 0.9c0.5 0.2 0.8 0.8 0.6 1.3-0.2 0.5-0.7 0.8-1.2 0.6l-2.9-1c-0.5-0.2-0.7-0.7-0.6-1.3 0.2-0.5 0.8-0.7 1.3-0.5z"/><path class="d" d="m619.7 445.7l2.9 0.9c0.5 0.2 0.8 0.7 0.6 1.3-0.2 0.5-0.7 0.8-1.2 0.6l-2.9-1c-0.5-0.1-0.8-0.7-0.6-1.2 0.1-0.5 0.7-0.8 1.2-0.6z"/><path class="d" d="m629.2 448.8l2.9 0.9c0.5 0.1 0.8 0.7 0.6 1.2-0.1 0.5-0.7 0.8-1.2 0.6l-2.9-0.9c-0.5-0.1-0.8-0.7-0.6-1.2 0.1-0.5 0.7-0.8 1.2-0.6z"/><path class="d" d="m638.8 451.7l2.8 0.8c0.6 0.2 0.9 0.7 0.7 1.2-0.1 0.6-0.7 0.9-1.2 0.7l-2.9-0.8c-0.5-0.2-0.8-0.7-0.7-1.3 0.2-0.5 0.7-0.8 1.3-0.6z"/><path class="d" d="m648.4 454.4l2.8 0.8h0.1c0.5 0.1 0.8 0.7 0.7 1.2-0.2 0.6-0.7 0.9-1.3 0.7l-2.9-0.8c-0.5-0.1-0.8-0.7-0.7-1.2 0.2-0.5 0.7-0.8 1.3-0.7z"/><path class="d" d="m658 457l2.9 0.7c0.6 0.1 0.9 0.7 0.7 1.2-0.1 0.5-0.6 0.9-1.2 0.7l-2.9-0.7c-0.5-0.1-0.8-0.7-0.7-1.2 0.1-0.5 0.7-0.9 1.2-0.7z"/><path class="d" d="m667.7 459.3l2.9 0.7c0.6 0.1 0.9 0.6 0.8 1.2-0.1 0.5-0.7 0.9-1.2 0.7l-2.9-0.6c-0.6-0.2-0.9-0.7-0.8-1.2 0.1-0.6 0.7-0.9 1.2-0.8z"/><path class="d" d="m677.5 461.4l2.9 0.6c0.5 0.2 0.9 0.7 0.8 1.2-0.1 0.6-0.7 0.9-1.2 0.8l-3-0.6c-0.5-0.1-0.9-0.6-0.7-1.2 0.1-0.5 0.6-0.9 1.1-0.8z"/><path class="d" d="m687.2 463.4l3 0.5c0.5 0.1 0.9 0.6 0.8 1.2-0.1 0.5-0.6 0.9-1.2 0.8l-2.9-0.5c-0.6-0.1-0.9-0.7-0.8-1.2 0.1-0.6 0.6-0.9 1.1-0.8z"/><path class="d" d="m697.1 465l2.9 0.5c0.6 0.1 1 0.6 0.9 1.2-0.1 0.5-0.6 0.9-1.2 0.8l-2.9-0.4c-0.6-0.1-1-0.6-0.9-1.2 0.1-0.6 0.6-0.9 1.2-0.9z"/><path class="d" d="m706.9 466.5l3 0.3c0.6 0.1 1 0.6 0.9 1.2-0.1 0.5-0.6 0.9-1.1 0.9l-3-0.4c-0.6-0.1-1-0.6-0.9-1.2 0.1-0.5 0.6-0.9 1.1-0.8z"/><path class="d" d="m716.8 467.6l3 0.3c0.6 0 1 0.5 1 1.1-0.1 0.6-0.6 1-1.2 0.9l-3-0.3c-0.5 0-0.9-0.5-0.9-1.1 0.1-0.6 0.6-1 1.1-0.9z"/><path class="d" d="m726.8 468.4l3 0.2c0.5 0.1 1 0.6 0.9 1.1 0 0.6-0.5 1-1.1 1l-3-0.2c-0.5 0-1-0.5-0.9-1.1 0-0.6 0.5-1 1.1-1z"/><path class="d" d="m736.7 469l3 0.1c0.6 0 1.1 0.5 1 1.1 0 0.6-0.5 1-1 1l-3.1-0.1c-0.5 0-1-0.5-0.9-1.1 0-0.6 0.5-1 1-1z"/><path class="d" d="m746.7 469.3h3c0.6 0 1 0.5 1 1.1 0 0.6-0.4 1-1 1h-3c-0.6 0-1.1-0.5-1.1-1.1 0-0.5 0.5-1 1.1-1z"/><path class="d" d="m756.7 469.3l3-0.1c0.6 0 1 0.5 1 1.1 0.1 0.5-0.4 1-1 1l-3 0.1c-0.6 0-1.1-0.5-1.1-1 0-0.6 0.5-1.1 1.1-1.1z"/><path class="d" d="m766.6 469l3-0.2c0.6 0 1.1 0.5 1.1 1 0.1 0.6-0.4 1.1-1 1.2l-3 0.1c-0.6 0-1-0.4-1.1-1 0-0.6 0.4-1.1 1-1.1z"/><path class="d" d="m776.6 468.4l3-0.2c0.6-0.1 1.1 0.3 1.1 0.9 0.1 0.6-0.4 1.1-1 1.2l-3 0.2c-0.5 0.1-1-0.4-1.1-1 0-0.5 0.4-1.1 1-1.1z"/><path class="d" d="m786.5 467.5l3-0.3c0.6-0.1 1.1 0.3 1.2 0.9 0 0.6-0.4 1.1-1 1.2l-3 0.3c-0.5 0.1-1.1-0.4-1.1-0.9-0.1-0.6 0.3-1.1 0.9-1.2z"/><path class="d" d="m796.4 466.3l3-0.5c0.6-0.1 1.1 0.3 1.2 0.9 0.1 0.6-0.3 1.2-0.9 1.2l-3 0.5c-0.6 0.1-1.1-0.3-1.2-0.9-0.1-0.6 0.3-1.2 0.9-1.2z"/><path class="d" d="m806.2 464.7l3-0.5c0.6-0.1 1.1 0.3 1.2 0.8 0.2 0.6-0.2 1.2-0.8 1.3l-3 0.5c-0.6 0.1-1.1-0.3-1.2-0.8-0.1-0.6 0.2-1.2 0.8-1.3z"/><path class="d" d="m816 462.8l2.9-0.6h0.1c0.5-0.2 1.1 0.2 1.2 0.8 0.2 0.6-0.2 1.1-0.8 1.3l-2.9 0.6c-0.6 0.1-1.2-0.2-1.3-0.8-0.1-0.6 0.2-1.2 0.8-1.3z"/><path class="d" d="m825.7 460.6l2.9-0.8c0.6-0.2 1.2 0.2 1.4 0.8 0.1 0.6-0.2 1.2-0.8 1.3l-2.9 0.8c-0.6 0.1-1.2-0.2-1.4-0.8-0.1-0.6 0.2-1.2 0.8-1.3z"/><path class="d" d="m835.3 457.9l2.9-0.8c0.6-0.2 1.2 0.1 1.4 0.7 0.1 0.6-0.2 1.2-0.8 1.3l-2.9 0.9c-0.5 0.2-1.1-0.1-1.3-0.7-0.2-0.6 0.1-1.2 0.7-1.4z"/><path class="d" d="m844.8 454.9l2.8-1c0.6-0.2 1.2 0.1 1.4 0.7 0.2 0.6-0.1 1.2-0.6 1.4l-2.9 1c-0.5 0.2-1.2-0.1-1.4-0.7-0.2-0.6 0.1-1.2 0.7-1.4z"/><path class="d" d="m854.2 451.5l2.7-1.1c0.6-0.3 1.3 0 1.5 0.6 0.2 0.5-0.1 1.2-0.6 1.4l-2.8 1.1c-0.6 0.3-1.2 0-1.5-0.6-0.2-0.5 0.1-1.2 0.6-1.4z"/><path class="d" d="m863.3 447.6l2.7-1.2h0.1c0.5-0.3 1.2 0 1.4 0.5 0.3 0.6 0 1.2-0.5 1.5l-2.8 1.3c-0.5 0.2-1.2 0-1.4-0.6-0.3-0.5 0-1.2 0.5-1.5z"/><path class="d" d="m872.3 443.3l2.6-1.3h0.1c0.5-0.3 1.2-0.1 1.5 0.4 0.2 0.6 0 1.2-0.5 1.5l-2.7 1.4c-0.5 0.3-1.2 0.1-1.5-0.5-0.3-0.5-0.1-1.2 0.5-1.4z"/><path class="d" d="m881 438.6l2.6-1.5c0.5-0.3 1.2-0.2 1.5 0.4 0.4 0.5 0.2 1.2-0.3 1.5l-2.6 1.5c-0.6 0.3-1.3 0.2-1.6-0.4-0.3-0.5-0.1-1.2 0.4-1.5z"/><path class="d" d="m889.5 433.4l2.5-1.7c0.5-0.4 1.2-0.2 1.5 0.3 0.4 0.5 0.2 1.2-0.3 1.6l-2.5 1.6c-0.5 0.4-1.2 0.2-1.5-0.3-0.4-0.5-0.2-1.2 0.3-1.5z"/><path class="d" d="m897.6 427.7l2.4-1.9c0.5-0.3 1.2-0.3 1.6 0.2 0.3 0.5 0.3 1.2-0.2 1.6l-2.4 1.9c-0.5 0.3-1.2 0.2-1.6-0.3-0.4-0.5-0.3-1.2 0.2-1.5z"/><path class="d" d="m905.4 421.4l2.2-1.9c0.5-0.4 1.2-0.4 1.6 0.1 0.4 0.4 0.4 1.2-0.1 1.6l-2.3 2c-0.5 0.4-1.2 0.3-1.6-0.1-0.4-0.5-0.3-1.2 0.1-1.6z"/><path class="d" d="m912.7 414.7l2.1-2.1c0.4-0.4 1.2-0.4 1.6 0 0.4 0.5 0.4 1.2 0 1.6l-2.1 2.2c-0.5 0.4-1.2 0.4-1.6 0-0.5-0.5-0.5-1.2 0-1.6z"/><path class="d" d="m919.5 407.6l2-2.3c0.4-0.5 1.1-0.5 1.6-0.1 0.5 0.4 0.5 1.1 0.1 1.6l-2 2.3c-0.4 0.5-1.1 0.5-1.6 0.1-0.5-0.4-0.5-1.1-0.1-1.6z"/><path class="d" d="m925.9 399.9l1.8-2.3c0.4-0.6 1.1-0.7 1.6-0.3 0.5 0.4 0.6 1.1 0.2 1.6l-1.8 2.4c-0.4 0.5-1.1 0.6-1.6 0.3-0.5-0.4-0.6-1.1-0.2-1.6z"/><path class="d" d="m931.7 391.9l1.6-2.5c0.4-0.5 1.1-0.7 1.6-0.3 0.6 0.3 0.7 1 0.4 1.6l-1.7 2.5c-0.4 0.5-1.1 0.7-1.6 0.3-0.5-0.3-0.7-1-0.3-1.6z"/><path class="d" d="m937 383.5l1.4-2.6c0.4-0.6 1.1-0.8 1.6-0.4 0.6 0.3 0.8 1 0.5 1.5l-1.5 2.7c-0.4 0.5-1.1 0.7-1.6 0.4-0.6-0.3-0.8-1-0.5-1.6z"/><path class="d" d="m941.7 374.8l1.3-2.7c0.3-0.6 1-0.9 1.5-0.6 0.6 0.3 0.9 1 0.6 1.6l-1.4 2.7c-0.2 0.6-0.9 0.8-1.5 0.5-0.6-0.2-0.8-0.9-0.5-1.5z"/><path class="d" d="m945.8 365.7l1.1-2.7h0.1c0.2-0.6 0.9-0.9 1.5-0.7 0.6 0.3 0.9 1 0.6 1.6l-1.1 2.8c-0.3 0.5-1 0.8-1.6 0.6-0.6-0.3-0.8-0.9-0.6-1.5z"/><path class="d" d="m949.4 356.5l1-2.8v-0.1c0.2-0.6 0.8-0.9 1.5-0.7 0.6 0.2 0.9 0.9 0.7 1.5l-1 2.9c-0.2 0.6-0.9 0.9-1.5 0.7-0.6-0.2-0.9-0.9-0.7-1.5z"/><path class="d" d="m952.4 347l0.8-2.8v-0.1c0.2-0.6 0.8-1 1.5-0.8 0.6 0.2 1 0.8 0.8 1.5l-0.8 2.9c-0.2 0.6-0.9 1-1.5 0.8-0.6-0.2-1-0.8-0.8-1.5z"/><path class="d" d="m954.9 337.4l0.6-2.9c0.1-0.7 0.8-1.1 1.4-0.9 0.7 0.1 1.1 0.7 0.9 1.4l-0.6 2.9c-0.2 0.7-0.8 1.1-1.4 0.9-0.7-0.1-1.1-0.7-0.9-1.4z"/><path class="d" d="m956.8 327.7l0.5-3c0.1-0.7 0.7-1.1 1.3-1 0.7 0.1 1.1 0.7 1 1.4l-0.5 3c-0.1 0.6-0.7 1-1.3 0.9-0.7-0.1-1.1-0.7-1-1.3z"/><path class="d" d="m958.2 317.8l0.3-2.9v-0.1c0.1-0.6 0.7-1.1 1.3-1 0.7 0 1.1 0.6 1.1 1.3l-0.4 3c0 0.6-0.6 1.1-1.3 1-0.6 0-1.1-0.6-1-1.3z"/><path class="d" d="m959 307.9l0.2-3c0-0.6 0.6-1.1 1.3-1.1 0.6 0 1.1 0.6 1.1 1.2v0.1l-0.2 3c0 0.6-0.6 1.1-1.2 1.1-0.7 0-1.2-0.6-1.2-1.3z"/><path class="d" d="m959.4 298v-3c0-0.7 0.5-1.2 1.2-1.2 0.7 0 1.2 0.5 1.2 1.2v3c0 0.7-0.5 1.2-1.2 1.2-0.7 0-1.2-0.5-1.2-1.2z"/><path class="d" d="m959.3 288l-0.2-2.9v-0.1c0-0.6 0.5-1.2 1.2-1.2 0.6 0 1.2 0.5 1.2 1.1l0.2 3.1c0 0.6-0.5 1.2-1.2 1.2-0.6 0-1.2-0.5-1.2-1.1z"/><path class="d" d="m958.6 278.1l-0.2-2.9v-0.1c-0.1-0.6 0.4-1.2 1.1-1.3 0.6 0 1.2 0.4 1.3 1.1l0.3 3c0 0.7-0.5 1.3-1.1 1.3-0.7 0.1-1.3-0.4-1.4-1.1z"/><path class="d" d="m957.6 268.2l-0.5-2.9c-0.1-0.7 0.4-1.3 1.1-1.4 0.6-0.1 1.3 0.4 1.4 1l0.4 3c0.1 0.7-0.4 1.3-1.1 1.4-0.6 0.1-1.2-0.4-1.3-1z"/><path class="d" d="m956 258.4l-0.5-2.9c-0.2-0.7 0.3-1.3 0.9-1.5 0.7-0.1 1.3 0.4 1.5 1l0.5 3c0.1 0.6-0.3 1.3-1 1.4-0.6 0.1-1.3-0.3-1.4-1z"/><path class="d" d="m954 248.7l-0.7-2.9c-0.1-0.7 0.3-1.4 0.9-1.5 0.7-0.2 1.4 0.2 1.5 0.9l0.7 2.9c0.2 0.7-0.2 1.4-0.9 1.5-0.7 0.2-1.3-0.2-1.5-0.9z"/><path class="d" d="m951.6 239l-0.8-2.8c-0.2-0.7 0.1-1.4 0.8-1.6 0.7-0.2 1.3 0.2 1.5 0.9l0.9 2.9c0.1 0.6-0.2 1.3-0.9 1.5-0.7 0.2-1.3-0.2-1.5-0.8z"/><path class="d" d="m948.7 229.5l-0.9-2.8c-0.3-0.7 0.1-1.4 0.7-1.6 0.7-0.2 1.4 0.1 1.6 0.8l1 2.9c0.2 0.6-0.2 1.3-0.8 1.5-0.7 0.2-1.4-0.1-1.6-0.8z"/><path class="d" d="m945.4 220.1l-1-2.8c-0.3-0.6 0-1.3 0.7-1.6 0.6-0.2 1.3 0.1 1.6 0.7l1.1 2.9c0.2 0.6-0.1 1.3-0.8 1.6-0.6 0.2-1.3-0.1-1.6-0.8z"/><path class="d" d="m941.7 210.9l-1.1-2.7-0.1-0.1c-0.2-0.6 0.1-1.3 0.7-1.6 0.6-0.3 1.4 0 1.6 0.7l1.2 2.7c0.3 0.7 0 1.4-0.6 1.7-0.7 0.2-1.4-0.1-1.7-0.7z"/><path class="d" d="m937.7 201.8l-1.3-2.7c-0.3-0.6-0.1-1.4 0.5-1.7 0.7-0.3 1.4 0 1.7 0.6l1.3 2.7c0.3 0.7 0.1 1.4-0.6 1.7-0.6 0.3-1.3 0.1-1.6-0.6z"/><path class="d" d="m933.2 192.9l-1.4-2.6c-0.3-0.6-0.1-1.4 0.5-1.7 0.6-0.3 1.4-0.1 1.7 0.5l1.4 2.7c0.4 0.6 0.1 1.3-0.5 1.7-0.6 0.3-1.4 0.1-1.7-0.6z"/><path class="d" d="m928.4 184.2l-1.5-2.5v-0.1c-0.4-0.6-0.2-1.3 0.4-1.7 0.6-0.3 1.4-0.1 1.7 0.5l1.6 2.6c0.3 0.6 0.1 1.3-0.5 1.7-0.6 0.3-1.4 0.1-1.7-0.5z"/><path class="d" d="m923.2 175.7l-1.6-2.5c-0.4-0.6-0.2-1.4 0.4-1.8 0.6-0.3 1.3-0.2 1.7 0.4l1.7 2.6c0.3 0.6 0.2 1.3-0.4 1.7-0.6 0.4-1.4 0.2-1.8-0.4z"/><path class="d" d="m917.7 167.4l-1.7-2.4c-0.4-0.6-0.3-1.4 0.3-1.8 0.6-0.4 1.4-0.3 1.8 0.3l1.7 2.5c0.4 0.6 0.3 1.4-0.3 1.8-0.6 0.4-1.4 0.2-1.8-0.3z"/><path class="d" d="m911.9 159.4l-1.8-2.4c-0.5-0.6-0.4-1.4 0.2-1.8 0.6-0.4 1.4-0.3 1.8 0.2l1.8 2.4c0.5 0.6 0.3 1.4-0.2 1.8-0.6 0.5-1.4 0.3-1.8-0.2z"/><path class="d" d="m905.7 151.5l-1.9-2.3c-0.4-0.5-0.3-1.3 0.2-1.8 0.6-0.4 1.4-0.4 1.8 0.2l1.9 2.3c0.5 0.6 0.4 1.4-0.1 1.8-0.6 0.5-1.4 0.4-1.8-0.1z"/><path class="d" d="m899.3 144l-2-2.3c-0.5-0.5-0.4-1.3 0.1-1.8 0.6-0.5 1.4-0.4 1.8 0.1l2 2.3c0.5 0.5 0.5 1.3-0.1 1.8-0.5 0.4-1.3 0.4-1.8-0.1z"/><path class="d" d="m892.6 136.6l-2.1-2.1c-0.5-0.6-0.5-1.4 0-1.9 0.6-0.5 1.4-0.5 1.9 0.1l2.1 2.1c0.5 0.6 0.4 1.4-0.1 1.9-0.5 0.5-1.3 0.4-1.8-0.1z"/><path class="d" d="m885.6 129.5l-2.1-2h-0.1c-0.5-0.5-0.5-1.4 0-1.9 0.5-0.5 1.3-0.5 1.8 0l2.2 2.1c0.5 0.5 0.5 1.3 0 1.8-0.5 0.5-1.3 0.5-1.8 0z"/><path class="d" d="m878.4 122.7l-2.3-2c-0.5-0.5-0.6-1.3-0.1-1.8 0.5-0.6 1.3-0.6 1.9-0.1l2.2 2c0.5 0.5 0.6 1.3 0.1 1.8-0.5 0.6-1.3 0.6-1.8 0.1z"/><path class="d" d="m870.9 116.2l-2.3-2c-0.6-0.4-0.7-1.3-0.2-1.8 0.5-0.6 1.3-0.6 1.8-0.2l2.4 2c0.5 0.4 0.6 1.3 0.1 1.8-0.4 0.6-1.3 0.6-1.8 0.2z"/><path class="d" d="m863.1 109.9l-2.3-1.9c-0.6-0.4-0.7-1.2-0.2-1.8 0.4-0.6 1.2-0.7 1.8-0.2l2.4 1.8c0.5 0.5 0.6 1.3 0.2 1.9-0.4 0.5-1.3 0.6-1.8 0.2z"/><path class="d" d="m855.2 103.8l-2.4-1.7c-0.6-0.4-0.7-1.3-0.3-1.9 0.4-0.6 1.3-0.7 1.9-0.3l2.4 1.8c0.6 0.5 0.7 1.3 0.3 1.9-0.5 0.6-1.3 0.7-1.9 0.3z"/><path class="d" d="m847.1 98.1l-2.5-1.7c-0.6-0.4-0.7-1.2-0.3-1.8 0.4-0.6 1.2-0.8 1.8-0.4l2.5 1.7c0.6 0.4 0.8 1.2 0.4 1.8-0.5 0.6-1.3 0.8-1.9 0.4z"/><path class="d" d="m838.8 92.6l-2.5-1.6c-0.7-0.4-0.8-1.2-0.4-1.9 0.4-0.6 1.2-0.8 1.8-0.4l2.5 1.6c0.7 0.4 0.8 1.3 0.4 1.9-0.3 0.6-1.2 0.8-1.8 0.4z"/><path class="d" d="m830.3 87.3l-2.5-1.5c-0.7-0.4-0.9-1.2-0.5-1.8 0.4-0.6 1.2-0.9 1.8-0.5l2.6 1.6c0.6 0.3 0.8 1.2 0.5 1.8-0.4 0.6-1.2 0.8-1.9 0.5z"/><path class="d" d="m821.7 82.4l-2.6-1.5c-0.7-0.3-0.9-1.1-0.5-1.8 0.3-0.6 1.1-0.9 1.8-0.5l2.6 1.4c0.7 0.4 0.9 1.2 0.5 1.9-0.3 0.6-1.1 0.8-1.8 0.5z"/><path class="d" d="m812.9 77.7l-2.6-1.4c-0.7-0.4-1-1.2-0.6-1.8 0.3-0.7 1.1-0.9 1.8-0.6l2.7 1.4c0.6 0.3 0.9 1.1 0.6 1.8-0.4 0.6-1.2 0.9-1.9 0.6z"/><path class="d" d="m804 73.2l-2.7-1.3c-0.7-0.3-0.9-1.1-0.6-1.8 0.3-0.7 1.1-1 1.8-0.6l2.7 1.3c0.7 0.3 1 1.1 0.6 1.8-0.3 0.6-1.1 0.9-1.8 0.6z"/><path class="d" d="m795 69l-2.7-1.2c-0.7-0.3-1-1.1-0.7-1.8 0.3-0.7 1.1-1 1.8-0.7l2.7 1.2c0.7 0.3 1 1.1 0.7 1.8-0.3 0.7-1.1 1-1.8 0.7z"/><path class="d" d="m785.8 65.1l-2.7-1.2c-0.7-0.3-1.1-1.1-0.8-1.8 0.3-0.6 1.1-1 1.8-0.7l2.8 1.1c0.7 0.3 1 1.1 0.7 1.8-0.3 0.7-1 1-1.7 0.8z"/><path class="d" d="m776.6 61.4l-2.8-1.1c-0.7-0.2-1.1-1-0.8-1.7 0.3-0.7 1-1.1 1.8-0.8l2.8 1c0.7 0.3 1 1.1 0.8 1.8-0.3 0.7-1.1 1-1.8 0.8z"/><path class="d" d="m767.2 58l-2.8-1c-0.7-0.3-1.1-1.1-0.8-1.8 0.2-0.7 1-1.1 1.7-0.8l2.8 1c0.8 0.2 1.1 1 0.9 1.7-0.3 0.7-1 1.1-1.8 0.9z"/><path class="d" d="m757.8 54.8l-2.9-0.9c-0.7-0.2-1.1-1-0.9-1.7 0.3-0.8 1-1.2 1.8-0.9l2.8 0.9c0.8 0.2 1.2 1 0.9 1.7-0.2 0.7-1 1.1-1.7 0.9z"/><path class="d" d="m748.3 51.9l-2.9-0.8c-0.8-0.3-1.2-1-1-1.8 0.2-0.7 1-1.1 1.7-0.9l2.9 0.8c0.8 0.2 1.2 1 1 1.7-0.2 0.8-1 1.2-1.7 1z"/><path class="d" d="m738.7 49.2l-2.9-0.7c-0.8-0.2-1.2-1-1-1.7 0.2-0.8 0.9-1.2 1.6-1l3 0.7c0.7 0.2 1.2 1 1 1.7-0.2 0.8-1 1.2-1.7 1z"/><path class="d" d="m729 46.8l-2.9-0.6c-0.8-0.2-1.3-0.9-1.1-1.7 0.2-0.7 0.9-1.2 1.7-1l2.9 0.6c0.8 0.2 1.2 0.9 1.1 1.7-0.2 0.7-1 1.2-1.7 1z"/><path class="d" d="m719.3 44.7l-3-0.6c-0.7-0.1-1.2-0.9-1.1-1.6 0.2-0.8 0.9-1.3 1.7-1.1l2.9 0.6c0.8 0.1 1.3 0.9 1.1 1.6-0.1 0.8-0.9 1.3-1.6 1.1z"/><path class="d" d="m709.5 42.8l-3-0.5c-0.7-0.1-1.3-0.8-1.1-1.6 0.1-0.8 0.8-1.3 1.6-1.1l3 0.5c0.7 0.1 1.2 0.8 1.1 1.6-0.1 0.8-0.9 1.3-1.6 1.1z"/><path class="d" d="m699.6 41.2l-2.9-0.4c-0.8-0.1-1.3-0.8-1.2-1.6 0.1-0.8 0.8-1.3 1.6-1.2l3 0.5c0.7 0.1 1.3 0.8 1.1 1.6-0.1 0.7-0.8 1.3-1.5 1.1z"/><path class="d" d="m689.8 39.9l-2.7-0.3c-0.8-0.1-1.4-0.8-1.3-1.6 0.1-0.8 0.8-1.3 1.6-1.2l2.7 0.3c0.8 0.1 1.3 0.8 1.2 1.6 0 0.7-0.7 1.3-1.5 1.2z"/><path class="aA" d="m669.6 22.8l1 17.6-13.6-6.7z"/><path class="aB" d="m683.1 0.7c0.8-0.1 1.6 0.2 2 0.8 0.5 0.6 0.4 1.4 0 2l-41.6 52.2c-0.8 1-2 1.7-3.4 1.9-1.3 0.2-2.6-0.1-3.7-0.9l-54.8-38z"/><path class="aC" d="m663.4 36.1l-0.4-4.8-81.4-12.6 88 4.1z"/><path class="aD" d="m663 31.3l7.6 9.1-11.7-4.2z"/><path class="aE" d="m687.3 335.7c43.5-2.5 156.6 4.7 190.1 7.7 7.7 0.7 13.8 6.2 14.5 13.1 5.5 57.4 3.2 182.8 2.1 227.4-0.2 9.3-8.5 16.8-19 17.2-50.3 1.8-162.9-0.4-193.6-1.3-6.3-0.2-11.2-4.6-11.4-10.1-1.9-51.9 2-198.4 3.2-240.9 0.2-7 6.3-12.7 14.1-13.1z"/><path class="aF" d="m699.2 355.5c35.7-0.5 139.5 1.2 170.5 1.9 7.5 0.2 13.3 1.7 13.6 3.7 1.6 12-4.5 42.8-6.7 52.9-0.4 2-6.3 3.5-13.9 3.7-42 0.9-139.7-0.1-168.3-0.5-7-0.1-12.5-1.6-12.7-3.4-1.7-12.2 3.5-45.2 5.2-55.1 0.3-1.8 5.6-3.1 12.3-3.2z"/><path class="aG" d="m872.5 373.2l-0.6 34.4c0 2.9-5.1 5.3-11.2 5.2l-158.2-1.9c-6.2-0.1-11-2.6-10.7-5.5l3.4-35.7c0.4-4.3 4-7.5 8.3-7.5l160.9 2.6c2.2 0 4.3 0.9 5.8 2.5 1.5 1.6 2.4 3.7 2.3 5.9z"/><path class="aH" d="m725 452.5c0 6.4-5.1 11.5-11.5 11.5h-14c-6.4 0-11.5-5.1-11.5-11.5 0-6.4 5.1-11.5 11.5-11.5h14c6.4 0 11.5 5.1 11.5 11.5z"/><path class="aI" d="m777 452.5c0 6.4-5.1 11.5-11.5 11.5h-14c-6.4 0-11.5-5.1-11.5-11.5 0-6.4 5.1-11.5 11.5-11.5h14c6.4 0 11.5 5.1 11.5 11.5z"/><path class="aJ" d="m827 452.5c0 6.4-5.1 11.5-11.5 11.5h-14c-6.4 0-11.5-5.1-11.5-11.5 0-6.4 5.1-11.5 11.5-11.5h14c6.4 0 11.5 5.1 11.5 11.5z"/><path class="aK" d="m878 454.5c0 6.4-5.1 11.5-11.5 11.5h-14c-6.4 0-11.5-5.1-11.5-11.5 0-6.4 5.1-11.5 11.5-11.5h14c6.4 0 11.5 5.1 11.5 11.5z"/><path class="aL" d="m725 488.5c0 6.4-5.1 11.5-11.5 11.5h-14c-6.4 0-11.5-5.1-11.5-11.5 0-6.4 5.1-11.5 11.5-11.5h14c6.4 0 11.5 5.1 11.5 11.5z"/><path class="aM" d="m777 488.5c0 6.4-5.1 11.5-11.5 11.5h-14c-6.4 0-11.5-5.1-11.5-11.5 0-6.4 5.1-11.5 11.5-11.5h14c6.4 0 11.5 5.1 11.5 11.5z"/><path class="aN" d="m827 488.5c0 6.4-5.1 11.5-11.5 11.5h-14c-6.4 0-11.5-5.1-11.5-11.5 0-6.4 5.1-11.5 11.5-11.5h14c6.4 0 11.5 5.1 11.5 11.5z"/><path class="aO" d="m879 488.5c0 6.4-5.1 11.5-11.5 11.5h-14c-6.4 0-11.5-5.1-11.5-11.5 0-6.4 5.1-11.5 11.5-11.5h14c6.4 0 11.5 5.1 11.5 11.5z"/><path class="aP" d="m725 522.5c0 6.4-5.1 11.5-11.5 11.5h-14c-6.4 0-11.5-5.1-11.5-11.5 0-6.4 5.1-11.5 11.5-11.5h14c6.4 0 11.5 5.1 11.5 11.5z"/><path class="aQ" d="m777 522.5c0 6.4-5.1 11.5-11.5 11.5h-14c-6.4 0-11.5-5.1-11.5-11.5 0-6.4 5.1-11.5 11.5-11.5h14c6.4 0 11.5 5.1 11.5 11.5z"/><path class="aR" d="m827 522.5c0 6.4-5.1 11.5-11.5 11.5h-14c-6.4 0-11.5-5.1-11.5-11.5 0-6.4 5.1-11.5 11.5-11.5h14c6.4 0 11.5 5.1 11.5 11.5z"/><path class="aS" d="m725 557.5c0 6.4-5.1 11.5-11.5 11.5h-14c-6.4 0-11.5-5.1-11.5-11.5 0-6.4 5.1-11.5 11.5-11.5h14c6.4 0 11.5 5.1 11.5 11.5z"/><path class="aT" d="m777 557.5c0 6.4-5.1 11.5-11.5 11.5h-14c-6.4 0-11.5-5.1-11.5-11.5 0-6.4 5.1-11.5 11.5-11.5h14c6.4 0 11.5 5.1 11.5 11.5z"/><path class="aU" d="m827 557.5c0 6.4-5.1 11.5-11.5 11.5h-14c-6.4 0-11.5-5.1-11.5-11.5 0-6.4 5.1-11.5 11.5-11.5h14c6.4 0 11.5 5.1 11.5 11.5z"/><path class="aV" d="m874 554.4c0 8.1-6.5 14.6-14.6 14.6h-0.8c-8.1 0-14.6-6.5-14.6-14.6v-27.8c0-8.1 6.5-14.6 14.6-14.6h0.8c8.1 0 14.6 6.5 14.6 14.6z"/><g style="opacity:.7"><path class="d" d="m854 372.5c0 1.4-1.1 2.5-2.5 2.5h-7c-1.4 0-2.5-1.1-2.5-2.5 0-1.4 1.1-2.5 2.5-2.5h7c1.4 0 2.5 1.1 2.5 2.5z"/><path class="d" d="m854 406.5c0 1.4-1.1 2.5-2.5 2.5h-7c-1.4 0-2.5-1.1-2.5-2.5 0-1.4 1.1-2.5 2.5-2.5h7c1.4 0 2.5 1.1 2.5 2.5z"/><path class="d" d="m843 386.5c0 1.4-1.1 2.5-2.5 2.5-1.4 0-2.5-1.1-2.5-2.5v-7c0-1.4 1.1-2.5 2.5-2.5 1.4 0 2.5 1.1 2.5 2.5z"/><path class="d" d="m843 400.5c0 1.4-1.1 2.5-2.5 2.5-1.4 0-2.5-1.1-2.5-2.5v-7c0-1.4 1.1-2.5 2.5-2.5 1.4 0 2.5 1.1 2.5 2.5z"/><path class="d" d="m860 386.5c0 1.4-1.1 2.5-2.5 2.5-1.4 0-2.5-1.1-2.5-2.5v-7c0-1.4 1.1-2.5 2.5-2.5 1.4 0 2.5 1.1 2.5 2.5z"/><path class="d" d="m860 400.5c0 1.4-1.1 2.5-2.5 2.5-1.4 0-2.5-1.1-2.5-2.5v-7c0-1.4 1.1-2.5 2.5-2.5 1.4 0 2.5 1.1 2.5 2.5z"/></g></svg>